<svg width="20" height="20" viewBox="0 0 20 20" fill="none" xmlns="http://www.w3.org/2000/svg">
<path d="M4.1665 14.1667C4.1665 14.6087 4.3421 15.0326 4.65466 15.3452C4.96722 15.6577 5.39114 15.8333 5.83317 15.8333C6.2752 15.8333 6.69912 15.6577 7.01168 15.3452C7.32424 15.0326 7.49984 14.6087 7.49984 14.1667C7.49984 13.7246 7.32424 13.3007 7.01168 12.9882C6.69912 12.6756 6.2752 12.5 5.83317 12.5C5.39114 12.5 4.96722 12.6756 4.65466 12.9882C4.3421 13.3007 4.1665 13.7246 4.1665 14.1667ZM12.4998 14.1667C12.4998 14.6087 12.6754 15.0326 12.988 15.3452C13.3006 15.6577 13.7245 15.8333 14.1665 15.8333C14.6085 15.8333 15.0325 15.6577 15.345 15.3452C15.6576 15.0326 15.8332 14.6087 15.8332 14.1667C15.8332 13.7246 15.6576 13.3007 15.345 12.9882C15.0325 12.6756 14.6085 12.5 14.1665 12.5C13.7245 12.5 13.3006 12.6756 12.988 12.9882C12.6754 13.3007 12.4998 13.7246 12.4998 14.1667Z" stroke="#4F46E5" stroke-width="1.5" stroke-linecap="round" stroke-linejoin="round"/>
<path d="M4.1665 14.1667H2.49984V10.8334M1.6665 4.16675H10.8332V14.1667M7.49984 14.1667H12.4998M15.8332 14.1667H17.4998V9.16675M17.4998 9.16675H10.8332M17.4998 9.16675L14.9998 5.00008H10.8332M2.49984 7.50008H5.83317" stroke="#4F46E5" stroke-width="1.5" stroke-linecap="round" stroke-linejoin="round"/>
</svg>
