<svg width="11" height="11" viewBox="0 0 11 11" fill="none" xmlns="http://www.w3.org/2000/svg">
<path d="M5.5 0C4.4122 0 3.34884 0.322569 2.44437 0.926917C1.5399 1.53126 0.834947 2.39025 0.418665 3.39524C0.00238307 4.40023 -0.106535 5.5061 0.105683 6.573C0.317902 7.63989 0.841726 8.6199 1.61091 9.38909C2.3801 10.1583 3.36011 10.6821 4.427 10.8943C5.4939 11.1065 6.59977 10.9976 7.60476 10.5813C8.60975 10.1651 9.46873 9.4601 10.0731 8.55564C10.6774 7.65117 11 6.5878 11 5.5C10.9984 4.04179 10.4185 2.64376 9.38735 1.61265C8.35624 0.581546 6.95821 0.00157716 5.5 0ZM9.46321 3.20833H7.98692C7.65644 2.44245 7.22131 1.72612 6.69396 1.07983C7.8611 1.39742 8.85606 2.16217 9.46321 3.20833ZM7.5625 5.5C7.55874 5.96665 7.4852 6.43011 7.34433 6.875H3.65567C3.5148 6.43011 3.44126 5.96665 3.4375 5.5C3.44126 5.03335 3.5148 4.56989 3.65567 4.125H7.34433C7.4852 4.56989 7.55874 5.03335 7.5625 5.5ZM4.02325 7.79167H6.97675C6.58773 8.55971 6.0904 9.26788 5.5 9.8945C4.90938 9.26806 4.41203 8.55985 4.02325 7.79167ZM4.02325 3.20833C4.41227 2.44029 4.9096 1.73211 5.5 1.1055C6.09062 1.73194 6.58797 2.44015 6.97675 3.20833H4.02325ZM4.30833 1.07983C3.78018 1.72598 3.34427 2.44232 3.01308 3.20833H1.53679C2.14448 2.1617 3.14034 1.39689 4.30833 1.07983ZM1.12796 4.125H2.70417C2.58535 4.57377 2.52375 5.03577 2.52084 5.5C2.52375 5.96423 2.58535 6.42622 2.70417 6.875H1.12796C0.846242 5.97998 0.846242 5.02002 1.12796 4.125ZM1.53679 7.79167H3.01308C3.34427 8.55768 3.78018 9.27401 4.30833 9.92016C3.14034 9.60311 2.14448 8.8383 1.53679 7.79167ZM6.69396 9.92016C7.22131 9.27388 7.65644 8.55755 7.98692 7.79167H9.46321C8.85606 8.83782 7.8611 9.60257 6.69396 9.92016ZM9.87204 6.875H8.29583C8.41465 6.42622 8.47625 5.96423 8.47917 5.5C8.47625 5.03577 8.41465 4.57377 8.29583 4.125H9.87113C10.1528 5.02002 10.1528 5.97998 9.87113 6.875H9.87204Z" fill="#2759CD"/>
</svg>
