<svg width="41" height="40" viewBox="0 0 41 40" fill="none" xmlns="http://www.w3.org/2000/svg">
<path d="M9.30732 31.865C9.62757 31.4647 9.90779 31.1044 9.52749 30.624C9.16721 30.1636 8.6468 30.3037 8.24649 30.644C5.80456 33.3461 2.76217 35.7881 0.380299 38.4902C0.240189 38.6503 0.14011 38.8505 0 38.9906V39.4509C0.480378 40.0914 0.80063 40.1715 1.44113 39.6911C3.80299 36.989 7.04554 34.5471 9.30732 31.845V31.865Z" fill="#FFC107"/>
<path d="M2.34206 34.347L7.26593 29.4231C7.78634 28.7826 7.30596 27.962 6.4653 28.1421C6.34521 28.1622 6.26514 28.2422 6.16507 28.3223L1.32126 33.1661C0.700768 33.8867 1.52141 34.8474 2.34206 34.327V34.347Z" fill="#FFC107"/>
<path d="M11.0086 32.5456C10.8685 32.5656 10.6684 32.7057 10.5483 32.8058C9.20721 34.4271 7.0255 35.9483 5.78452 37.5695C5.10399 38.4502 6.00469 39.3109 6.84536 38.7104L11.7292 33.8266C12.1695 33.2862 11.7092 32.4455 11.0086 32.5456Z" fill="#FFC107"/>
<path d="M24.8395 9.94776C18.9549 10.5682 19.7155 19.6754 25.6802 19.2951C31.9251 18.9148 31.3246 9.26722 24.8395 9.94776Z" fill="white"/>
<path d="M12.9299 19.3952C11.9491 20.0157 13.1101 21.3768 13.8907 20.6162C14.5712 19.9557 13.7105 18.9149 12.9299 19.3952Z" fill="white"/>
<path d="M39.471 0H38.23L34.2269 0.580456C30.7241 1.26099 27.1013 2.32183 24.0789 4.28337C21.3968 6.02474 19.4753 8.6468 17.0734 10.7284L10.0478 11.5091L9.62752 11.6492L2.70207 18.5746C2.42185 19.2952 2.80215 19.6354 3.48268 19.7756C4.98386 20.1158 6.6852 20.1358 8.2064 20.4161C8.42657 20.8564 9.28725 21.3768 9.48741 21.7371C9.54745 21.8372 9.54745 21.8772 9.44737 21.9373L6.16479 23.8988C5.94462 24.139 5.84454 24.4592 5.98465 24.7795C8.8469 27.922 11.9894 30.8242 14.9517 33.8666C15.352 34.1669 15.7123 34.2069 16.1126 33.8666L18.1542 30.504L19.5753 31.765L20.2959 36.7889C20.436 37.2893 20.8764 37.5495 21.3768 37.3494C23.7586 35.1476 25.9804 32.7858 28.3022 30.504C28.4023 30.3439 28.4623 30.1637 28.5024 29.9836C28.9027 27.8419 28.8026 25.3399 29.2229 23.1982C29.2229 23.0982 29.263 22.9981 29.303 22.898C31.4046 20.5361 34.0267 18.5746 35.7681 15.9125C38.2901 12.0295 39.8513 5.76453 40.0114 1.16091C40.0314 0.560441 39.9514 0.380299 39.451 0.0200157L39.471 0ZM8.98701 18.8748L8.72681 18.9149L5.08394 18.3544L10.3281 13.0903L15.332 12.5098L9.00703 18.8748H8.98701ZM16.9933 29.4432L15.4521 31.9651L8.06629 24.6594C8.04627 24.5593 8.12634 24.5393 8.18638 24.4792C8.92697 23.9388 9.92775 23.5385 10.6884 22.9981L17.0133 29.243V29.4432H16.9933ZM26.9211 29.7034L21.657 34.9475L21.0965 31.3046L21.1366 31.0444L27.5016 24.7194L26.9211 29.7234V29.7034ZM33.3462 16.573C29.7233 20.356 25.9403 24.0189 22.2374 27.7418C20.1558 25.8203 18.1943 23.7187 16.1526 21.7371C15.4521 21.0566 14.3913 21.8772 14.9517 22.7179L21.0165 28.7826L21.0565 28.9027C20.9364 29.1229 20.1358 30.0036 19.9356 29.9435L10.1079 19.9957L22.7979 7.26571C24.7394 5.48431 27.1213 4.22332 29.6232 3.38266L36.6087 10.2881L36.6688 10.4282C35.9282 12.6499 34.8474 14.7716 33.3662 16.573H33.3462ZM37.1692 8.68683L31.3446 2.82222C33.6464 2.26178 35.9883 1.76139 38.3901 1.64129C38.25 4.02316 37.8097 6.38502 37.1692 8.68683Z" fill="white"/>
</svg>
