<svg width="20" height="20" viewBox="0 0 20 20" fill="none" xmlns="http://www.w3.org/2000/svg">
<path d="M5.83301 7.50008C5.83301 8.38414 6.1842 9.23198 6.80932 9.8571C7.43444 10.4822 8.28229 10.8334 9.16634 10.8334C10.0504 10.8334 10.8982 10.4822 11.5234 9.8571C12.1485 9.23198 12.4997 8.38414 12.4997 7.50008C12.4997 6.61603 12.1485 5.76818 11.5234 5.14306C10.8982 4.51794 10.0504 4.16675 9.16634 4.16675C8.28229 4.16675 7.43444 4.51794 6.80932 5.14306C6.1842 5.76818 5.83301 6.61603 5.83301 7.50008Z" stroke="#4F46E5" stroke-width="1.5" stroke-linecap="round" stroke-linejoin="round"/>
<path d="M4.7915 12.5001C5.49478 13.1109 6.31806 13.5679 7.20846 13.8417C8.09885 14.1155 9.03667 14.2 9.96166 14.0898C10.8867 13.9796 11.7784 13.6771 12.5795 13.2018C13.3806 12.7264 14.0735 12.0888 14.6136 11.3298C15.1536 10.5708 15.5289 9.70721 15.7154 8.79453C15.9019 7.88186 15.8954 6.94026 15.6963 6.03025C15.4973 5.12023 15.1101 4.26191 14.5596 3.51044C14.0091 2.75897 13.3075 2.13095 12.4998 1.66675M9.1665 14.1667V17.5001M5.83317 17.5001H12.4998" stroke="#4F46E5" stroke-width="1.5" stroke-linecap="round" stroke-linejoin="round"/>
</svg>
