<svg width="13" height="19" viewBox="0 0 13 19" fill="none" xmlns="http://www.w3.org/2000/svg">
<path d="M1.83301 7.50008C1.83301 8.38414 2.1842 9.23198 2.80932 9.8571C3.43444 10.4822 4.28229 10.8334 5.16634 10.8334C6.0504 10.8334 6.89824 10.4822 7.52336 9.8571C8.14849 9.23198 8.49967 8.38414 8.49967 7.50008C8.49967 6.61603 8.14849 5.76818 7.52336 5.14306C6.89824 4.51794 6.0504 4.16675 5.16634 4.16675C4.28229 4.16675 3.43444 4.51794 2.80932 5.14306C2.1842 5.76818 1.83301 6.61603 1.83301 7.50008Z" stroke="#4F46E5" stroke-width="1.5" stroke-linecap="round" stroke-linejoin="round"/>
<path d="M0.791504 12.5001C1.49478 13.1109 2.31806 13.5679 3.20846 13.8417C4.09885 14.1155 5.03667 14.2 5.96166 14.0898C6.88665 13.9796 7.77836 13.6771 8.5795 13.2018C9.38065 12.7264 10.0735 12.0888 10.6136 11.3298C11.1536 10.5708 11.5289 9.70721 11.7154 8.79453C11.9019 7.88186 11.8954 6.94026 11.6963 6.03025C11.4973 5.12023 11.1101 4.26191 10.5596 3.51044C10.0091 2.75897 9.30747 2.13095 8.49984 1.66675M5.1665 14.1667V17.5001M1.83317 17.5001H8.49984" stroke="#4F46E5" stroke-width="1.5" stroke-linecap="round" stroke-linejoin="round"/>
</svg>
