<svg width="15" height="15" viewBox="0 0 15 15" fill="none" xmlns="http://www.w3.org/2000/svg">
<path d="M11.875 0H3.125C2.2965 0.00108263 1.50222 0.360601 0.916387 0.999695C0.330551 1.63879 0.000992411 2.50528 0 3.40909L0 11.5909C0.000992411 12.4947 0.330551 13.3612 0.916387 14.0003C1.50222 14.6394 2.2965 14.9989 3.125 15H11.875C12.7035 14.9989 13.4978 14.6394 14.0836 14.0003C14.6694 13.3612 14.999 12.4947 15 11.5909V3.40909C14.999 2.50528 14.6694 1.63879 14.0836 0.999695C13.4978 0.360601 12.7035 0.00108263 11.875 0ZM3.125 1.36364H11.875C12.2492 1.36444 12.6147 1.4874 12.9243 1.71668C13.234 1.94597 13.4737 2.2711 13.6125 2.65023L8.82625 7.87227C8.47402 8.25499 7.99713 8.46986 7.5 8.46986C7.00287 8.46986 6.52598 8.25499 6.17375 7.87227L1.3875 2.65023C1.52634 2.2711 1.76601 1.94597 2.07565 1.71668C2.3853 1.4874 2.75076 1.36444 3.125 1.36364ZM11.875 13.6364H3.125C2.62772 13.6364 2.15081 13.4209 1.79917 13.0373C1.44754 12.6537 1.25 12.1334 1.25 11.5909V4.43182L5.29 8.83636C5.87664 9.47472 6.67141 9.83321 7.5 9.83321C8.32859 9.83321 9.12336 9.47472 9.71 8.83636L13.75 4.43182V11.5909C13.75 12.1334 13.5525 12.6537 13.2008 13.0373C12.8492 13.4209 12.3723 13.6364 11.875 13.6364Z" fill="#0F44A0"/>
</svg>
