<svg width="41" height="40" viewBox="0 0 41 40" fill="none" xmlns="http://www.w3.org/2000/svg">
<path d="M3.64214 14.0647C3.18187 14.0046 1.34079 14.0046 0.920541 14.0647C0.440259 14.1647 0.220129 14.5249 0 14.9052V15.5255C0.220129 15.9058 0.440259 16.266 0.920541 16.366C1.34079 16.4461 3.18187 16.4461 3.64214 16.366C5.04297 16.1859 5.04297 14.1848 3.64214 14.0247V14.0647Z" fill="#FFC107"/>
<path d="M2.62166 10.0824C3.68228 10.5626 4.70288 9.58206 4.20259 8.50143C4.04249 8.14121 2.32148 6.44021 1.94126 6.30013C1.80118 6.2401 1.60106 6.20007 1.46098 6.20007C0.580458 6.26011 0.120187 7.16064 0.480399 7.92109C0.620482 8.24127 2.32148 9.92226 2.62166 10.0623V10.0824Z" fill="#FFC107"/>
<path d="M37.3818 10.0824C37.702 9.94228 39.383 8.24128 39.5231 7.9411C39.9033 7.12062 39.363 6.16005 38.4224 6.22009C38.3024 6.22009 38.1022 6.30013 38.0022 6.34016C37.662 6.50025 35.961 8.18124 35.8009 8.52144C35.3006 9.58206 36.3212 10.5827 37.3818 10.1024V10.0824Z" fill="#FFC107"/>
<path d="M3.10187 20.2684C2.9818 20.2684 2.78168 20.3485 2.68162 20.3885C2.34142 20.5486 0.640424 22.2296 0.48033 22.5698C-0.0199643 23.6304 1.00064 24.631 2.06126 24.1507C2.38145 24.0106 4.06244 22.3096 4.20252 22.0095C4.58274 21.189 4.04243 20.2284 3.10187 20.2884V20.2684Z" fill="#FFC107"/>
<path d="M37.2818 20.3685C37.1418 20.3085 36.9416 20.2684 36.8016 20.2684C35.921 20.3285 35.4608 21.229 35.821 21.9894C35.9611 22.3096 37.6621 23.9906 37.9622 24.1307C39.0229 24.611 40.0435 23.6304 39.5432 22.5498C39.3831 22.1896 37.6621 20.4886 37.2818 20.3485V20.3685Z" fill="#FFC107"/>
<path d="M39.1031 16.4061C40.2838 16.166 40.3238 14.4049 39.1632 14.1248C38.8029 14.0447 36.6217 14.0247 36.2414 14.1248C35.0607 14.3649 35.0207 16.1259 36.1814 16.4061C36.5416 16.4861 38.7229 16.5062 39.1031 16.4061Z" fill="#FFC107"/>
<path d="M16.7298 0.376695C8.24476 2.31784 3.62204 11.6633 7.10409 19.668C8.60497 23.1101 11.5067 24.691 11.8069 28.7934C11.9469 30.7746 11.2866 32.8758 13.0276 34.3767C13.3278 34.6368 14.0682 34.937 14.1883 35.0771C14.3083 35.2172 14.6285 36.4579 14.8486 36.8381C15.6691 38.4191 17.4502 39.7398 19.2312 40C19.2712 40 19.3313 40 19.3913 40H19.8516H20.632V39.92C22.9334 39.8199 24.7745 38.0388 25.5549 35.9776C25.655 35.7375 25.675 35.2572 25.8351 35.0771C25.9552 34.917 26.7156 34.6168 26.9958 34.3767C28.7368 32.8758 28.0764 30.7746 28.2165 28.7934C28.5167 24.651 31.6785 22.8299 33.0994 19.2078C37.2618 8.60153 27.7963 -2.1648 16.7298 0.376695ZM16.7298 35.2572H23.2936C22.193 38.4591 17.8304 38.4591 16.7298 35.2572ZM25.8751 32.0153C25.8751 32.0153 25.595 32.5556 25.5349 32.5956C25.3548 32.7557 24.9946 32.8958 24.7545 32.9158C21.7527 33.216 18.2707 32.6757 15.2089 32.9158C15.0087 32.8958 14.6485 32.7357 14.5084 32.5956C14.4484 32.5356 14.1682 32.0353 14.1682 32.0153V30.5745H25.8951V32.0153H25.8751ZM30.758 18.7675C29.7774 21.0288 27.9163 22.5097 26.8957 24.751C26.3954 25.8317 26.0552 27.0324 25.9552 28.2131H14.0682C13.8681 26.2319 13.0876 24.3308 11.9469 22.7098C11.2665 21.7493 10.4461 20.9488 9.8457 19.8882C5.96342 13.1042 9.72563 4.25898 17.3701 2.61801C26.7757 0.596824 34.5802 9.84226 30.758 18.7475V18.7675Z" fill="white"/>
<path d="M22.8733 5.13955C22.1329 4.89941 20.4719 4.55921 19.7515 4.7193C18.8709 4.89941 18.5307 6.04008 19.1511 6.70047C19.5714 7.16074 20.592 7.06068 21.1923 7.16074C24.054 7.62101 26.4754 10.0224 26.9357 12.9041C27.0758 13.7846 26.8556 15.1454 28.0964 15.2655C29.157 15.3656 29.4372 14.445 29.3971 13.5845C29.237 9.80229 26.4754 6.28022 22.8933 5.15956L22.8733 5.13955Z" fill="white"/>
</svg>
