<svg width="16" height="16" viewBox="0 0 16 16" fill="none" xmlns="http://www.w3.org/2000/svg">
<path d="M12.6875 10.5C12.6875 10.8456 12.4081 11.125 12.0625 11.125H10.8125C10.4669 11.125 10.1875 10.8456 10.1875 10.5C10.1875 10.1544 10.4669 9.875 10.8125 9.875H12.0625C12.4081 9.875 12.6875 10.1544 12.6875 10.5ZM15.5 9.875V13C15.5 14.3787 14.3787 15.5 13 15.5H3C1.62125 15.5 0.5 14.3787 0.5 13V9.875C0.5 8.49625 1.62125 7.375 3 7.375H3.625V3C3.625 1.62125 4.74625 0.5 6.125 0.5H9.875C11.2537 0.5 12.375 1.62125 12.375 3V7.375H13C14.3787 7.375 15.5 8.49625 15.5 9.875ZM4.875 7.375H11.125V3C11.125 2.31062 10.5644 1.75 9.875 1.75H6.125C5.43563 1.75 4.875 2.31062 4.875 3V7.375ZM3 14.25H7.375V8.625H3C2.31062 8.625 1.75 9.18563 1.75 9.875V13C1.75 13.6894 2.31062 14.25 3 14.25ZM14.25 9.875C14.25 9.18563 13.6894 8.625 13 8.625H8.625V14.25H13C13.6894 14.25 14.25 13.6894 14.25 13V9.875ZM5.1875 9.875H3.9375C3.59188 9.875 3.3125 10.1544 3.3125 10.5C3.3125 10.8456 3.59188 11.125 3.9375 11.125H5.1875C5.53312 11.125 5.8125 10.8456 5.8125 10.5C5.8125 10.1544 5.53312 9.875 5.1875 9.875ZM9.25 3.625C9.25 3.27938 8.97062 3 8.625 3H7.375C7.02938 3 6.75 3.27938 6.75 3.625C6.75 3.97062 7.02938 4.25 7.375 4.25H8.625C8.97062 4.25 9.25 3.97062 9.25 3.625Z" fill="#6C757D"/>
</svg>
