<svg width="19" height="19" viewBox="0 0 19 19" fill="none" xmlns="http://www.w3.org/2000/svg">
<path d="M3.95833 4.75V3.16667C3.95833 2.32681 4.29196 1.52136 4.88583 0.927495C5.47969 0.33363 6.28515 0 7.125 0L11.875 0C12.7149 0 13.5203 0.33363 14.1142 0.927495C14.708 1.52136 15.0417 2.32681 15.0417 3.16667V4.75C16.0911 4.75126 17.0972 5.1687 17.8392 5.91076C18.5813 6.65282 18.9987 7.6589 19 8.70833V12.6667C18.9987 13.7161 18.5813 14.7222 17.8392 15.4642C17.0972 16.2063 16.0911 16.6237 15.0417 16.625C15.0417 17.2549 14.7914 17.859 14.346 18.3044C13.9006 18.7498 13.2966 19 12.6667 19H6.33333C5.70344 19 5.09935 18.7498 4.65395 18.3044C4.20856 17.859 3.95833 17.2549 3.95833 16.625C2.9089 16.6237 1.90281 16.2063 1.16076 15.4642C0.418697 14.7222 0.00125694 13.7161 0 12.6667V8.70833C0.00125694 7.6589 0.418697 6.65282 1.16076 5.91076C1.90281 5.1687 2.9089 4.75126 3.95833 4.75ZM13.4583 3.16667C13.4583 2.74674 13.2915 2.34401 12.9946 2.04708C12.6977 1.75015 12.2949 1.58333 11.875 1.58333H7.125C6.70507 1.58333 6.30235 1.75015 6.00541 2.04708C5.70848 2.34401 5.54167 2.74674 5.54167 3.16667V4.75H13.4583V3.16667ZM5.54167 16.625C5.54167 16.835 5.62507 17.0363 5.77354 17.1848C5.92201 17.3333 6.12337 17.4167 6.33333 17.4167H12.6667C12.8766 17.4167 13.078 17.3333 13.2265 17.1848C13.3749 17.0363 13.4583 16.835 13.4583 16.625V13.4583C13.4583 13.2484 13.3749 13.047 13.2265 12.8985C13.078 12.7501 12.8766 12.6667 12.6667 12.6667H6.33333C6.12337 12.6667 5.92201 12.7501 5.77354 12.8985C5.62507 13.047 5.54167 13.2484 5.54167 13.4583V16.625ZM1.58333 12.6667C1.58333 13.2966 1.83356 13.9006 2.27895 14.346C2.72435 14.7914 3.32844 15.0417 3.95833 15.0417V13.4583C3.95833 12.8284 4.20856 12.2244 4.65395 11.779C5.09935 11.3336 5.70344 11.0833 6.33333 11.0833H12.6667C13.2966 11.0833 13.9006 11.3336 14.346 11.779C14.7914 12.2244 15.0417 12.8284 15.0417 13.4583V15.0417C15.6716 15.0417 16.2756 14.7914 16.721 14.346C17.1664 13.9006 17.4167 13.2966 17.4167 12.6667V8.70833C17.4167 8.07844 17.1664 7.47435 16.721 7.02895C16.2756 6.58356 15.6716 6.33333 15.0417 6.33333H3.95833C3.32844 6.33333 2.72435 6.58356 2.27895 7.02895C1.83356 7.47435 1.58333 8.07844 1.58333 8.70833V12.6667Z" fill="#495057"/>
</svg>
