<svg width="26" height="26" viewBox="0 0 26 26" fill="none" xmlns="http://www.w3.org/2000/svg">
<path d="M13 25.5C19.9036 25.5 25.5 19.9036 25.5 13C25.5 6.09644 19.9036 0.5 13 0.5C6.09644 0.5 0.5 6.09644 0.5 13C0.5 19.9036 6.09644 25.5 13 25.5Z" fill="#ED1C24"/>
<path d="M12.9999 4.15002C12.2249 4.15002 11.5874 4.78752 11.5874 5.56252V17.0875C11.5874 17.8625 12.2249 18.5 12.9999 18.5C13.7749 18.5 14.4124 17.8625 14.4124 17.0875V5.56252C14.4124 4.78752 13.7749 4.15002 12.9999 4.15002Z" fill="white"/>
<path d="M12.9999 19.025C12.2249 19.025 11.5874 19.6625 11.5874 20.4375C11.5874 21.2125 12.2249 21.85 12.9999 21.85C13.7749 21.85 14.4124 21.2125 14.4124 20.4375C14.4124 19.6625 13.7749 19.025 12.9999 19.025Z" fill="white"/>
</svg>
