<svg width="7" height="12" viewBox="0 0 7 12" fill="none" xmlns="http://www.w3.org/2000/svg">
<g opacity="0.8">
<path fill-rule="evenodd" clip-rule="evenodd" d="M4.74752 6.0009L0.24968 1.46527C-0.0832271 1.12914 -0.0832271 0.587017 0.24968 0.25089C0.408307 0.0903168 0.624675 -2.73055e-08 0.85035 -3.717e-08C1.07602 -4.70345e-08 1.29239 0.0903167 1.45102 0.25089L6.54953 5.39281C6.88349 5.72857 6.88349 6.27143 6.54953 6.60719L1.45123 11.7491C1.29239 11.9097 1.07602 12 0.85035 12C0.624676 12 0.408308 11.9097 0.249469 11.7491C-0.0832267 11.4129 -0.0832267 10.8708 0.249892 10.5347L4.74752 6.0009Z" fill="url(#paint0_radial_3091_13686)"/>
<path fill-rule="evenodd" clip-rule="evenodd" d="M4.74752 6.0009L0.24968 1.46527C-0.0832271 1.12914 -0.0832271 0.587017 0.24968 0.25089C0.408307 0.0903168 0.624675 -2.73055e-08 0.85035 -3.717e-08C1.07602 -4.70345e-08 1.29239 0.0903167 1.45102 0.25089L6.54953 5.39281C6.88349 5.72857 6.88349 6.27143 6.54953 6.60719L1.45123 11.7491C1.29239 11.9097 1.07602 12 0.85035 12C0.624676 12 0.408308 11.9097 0.249469 11.7491C-0.0832267 11.4129 -0.0832267 10.8708 0.249892 10.5347L4.74752 6.0009Z" fill="#AB638C"/>
<path fill-rule="evenodd" clip-rule="evenodd" d="M4.74752 6.0009L0.24968 1.46527C-0.0832271 1.12914 -0.0832271 0.587017 0.24968 0.25089C0.408307 0.0903168 0.624675 -2.73055e-08 0.85035 -3.717e-08C1.07602 -4.70345e-08 1.29239 0.0903167 1.45102 0.25089L6.54953 5.39281C6.88349 5.72857 6.88349 6.27143 6.54953 6.60719L1.45123 11.7491C1.29239 11.9097 1.07602 12 0.85035 12C0.624676 12 0.408308 11.9097 0.249469 11.7491C-0.0832267 11.4129 -0.0832267 10.8708 0.249892 10.5347L4.74752 6.0009Z" fill="black" fill-opacity="0.48"/>
</g>
<defs>
<radialGradient id="paint0_radial_3091_13686" cx="0" cy="0" r="1" gradientUnits="userSpaceOnUse" gradientTransform="translate(3.4 6) scale(3.4 6)">
<stop stop-color="#CC8B8B"/>
<stop offset="1" stop-color="#A33B3B"/>
</radialGradient>
</defs>
</svg>
