<svg width="11" height="15" viewBox="0 0 11 15" fill="none" xmlns="http://www.w3.org/2000/svg">
<path d="M5.05798 8.76126C2.3944 9.00202 0.365118 11.2527 0.40048 13.9269V14.0625C0.40048 14.5803 0.820216 15 1.33798 15C1.85574 15 2.27548 14.5803 2.27548 14.0625V13.8894C2.2473 12.2474 3.45902 10.8473 5.08798 10.6394C6.8075 10.4689 8.3397 11.7246 8.51021 13.4441C8.52029 13.5458 8.52538 13.6479 8.52547 13.75V14.0625C8.52547 14.5803 8.94521 15 9.46297 15C9.98073 15 10.4005 14.5803 10.4005 14.0625V13.75C10.3974 10.9854 8.15384 8.74685 5.38933 8.74989C5.27879 8.75004 5.16828 8.75382 5.05798 8.76126Z" fill="white"/>
<path d="M5.40049 7.5C7.47154 7.5 9.15049 5.82105 9.15049 3.75C9.15049 1.67895 7.47154 0 5.40049 0C3.32943 0 1.65049 1.67895 1.65049 3.75C1.65254 5.82021 3.33028 7.49792 5.40049 7.5ZM5.40049 1.875C6.43602 1.875 7.27549 2.71447 7.27549 3.75C7.27549 4.78553 6.43602 5.625 5.40049 5.625C4.36496 5.625 3.52549 4.78553 3.52549 3.75C3.52549 2.71447 4.36496 1.875 5.40049 1.875Z" fill="white"/>
</svg>
