<svg width="15" height="14" viewBox="0 0 15 14" fill="none" xmlns="http://www.w3.org/2000/svg">
<path d="M11.875 0.75H3.125C1.40188 0.75 0 2.15188 0 3.875V10.125C0 11.8481 1.40188 13.25 3.125 13.25H11.875C13.5981 13.25 15 11.8481 15 10.125V3.875C15 2.15188 13.5981 0.75 11.875 0.75ZM1.25 10.125V3.875C1.25 2.84125 2.09125 2 3.125 2H8.125V12H3.125C2.09125 12 1.25 11.1588 1.25 10.125ZM13.75 10.125C13.75 11.1588 12.9087 12 11.875 12H9.375V2H11.875C12.9087 2 13.75 2.84125 13.75 3.875V10.125ZM12.5 6.375C12.5 6.72063 12.22 7 11.875 7H11.25C10.905 7 10.625 6.72063 10.625 6.375C10.625 6.02938 10.905 5.75 11.25 5.75H11.875C12.22 5.75 12.5 6.02938 12.5 6.375ZM12.5 8.875C12.5 9.22063 12.22 9.5 11.875 9.5H11.25C10.905 9.5 10.625 9.22063 10.625 8.875C10.625 8.52938 10.905 8.25 11.25 8.25H11.875C12.22 8.25 12.5 8.52938 12.5 8.875ZM12.5 3.875C12.5 4.22063 12.22 4.5 11.875 4.5H11.25C10.905 4.5 10.625 4.22063 10.625 3.875C10.625 3.52938 10.905 3.25 11.25 3.25H11.875C12.22 3.25 12.5 3.52938 12.5 3.875Z" fill="white"/>
</svg>
