<svg width="15" height="15" viewBox="0 0 15 15" fill="none" xmlns="http://www.w3.org/2000/svg">
<g clip-path="url(#clip0_3091_13670)">
<path d="M3.7325 13.9282C3.59588 13.9281 3.46304 13.8833 3.35431 13.8006C3.24558 13.7179 3.16694 13.6018 3.13043 13.4702C3.09392 13.3385 3.10155 13.1986 3.15215 13.0717C3.20276 12.9448 3.29354 12.8379 3.41062 12.7675C5.625 11.4375 5.625 8.58128 5.625 6.87503C5.625 6.37775 5.82254 5.90084 6.17417 5.54921C6.5258 5.19758 7.00272 5.00003 7.5 5.00003C7.99728 5.00003 8.47419 5.19758 8.82582 5.54921C9.17745 5.90084 9.375 6.37775 9.375 6.87503C9.375 7.04079 9.30915 7.19976 9.19194 7.31697C9.07473 7.43418 8.91576 7.50003 8.75 7.50003C8.58424 7.50003 8.42527 7.43418 8.30806 7.31697C8.19085 7.19976 8.125 7.04079 8.125 6.87503C8.125 6.70927 8.05915 6.5503 7.94194 6.43309C7.82473 6.31588 7.66576 6.25003 7.5 6.25003C7.33424 6.25003 7.17527 6.31588 7.05806 6.43309C6.94085 6.5503 6.875 6.70927 6.875 6.87503C6.875 8.71691 6.875 12.1463 4.05375 13.8394C3.95667 13.8975 3.84564 13.9282 3.7325 13.9282ZM6.83437 14.8163C8.26062 13.3788 9.09375 11.3575 9.31 8.80316C9.31729 8.72122 9.30833 8.63864 9.28364 8.56017C9.25895 8.4817 9.21901 8.40888 9.16611 8.34587C9.11321 8.28287 9.0484 8.23094 8.97538 8.19304C8.90237 8.15514 8.82259 8.13203 8.74062 8.12503C8.65861 8.11662 8.57574 8.1248 8.49696 8.14909C8.41817 8.17338 8.34508 8.21328 8.28204 8.26641C8.21899 8.31954 8.16729 8.38481 8.13 8.45834C8.09271 8.53187 8.07061 8.61215 8.065 8.69441C7.87062 10.98 7.17812 12.6944 5.9475 13.9325C5.83064 14.0501 5.76528 14.2094 5.76581 14.3751C5.76634 14.5409 5.83271 14.6997 5.95031 14.8166C6.06792 14.9335 6.22713 14.9988 6.39293 14.9983C6.55872 14.9978 6.71751 14.9314 6.83437 14.8138V14.8163ZM10.0844 14.7C10.4635 14.0701 10.7792 13.4041 11.0269 12.7119C11.0787 12.5571 11.0678 12.3882 10.9966 12.2412C10.9255 12.0943 10.7997 11.9811 10.6461 11.9257C10.4925 11.8704 10.3234 11.8773 10.1748 11.945C10.0263 12.0127 9.91016 12.1359 9.85125 12.2882C9.63119 12.9019 9.35108 13.4925 9.015 14.0513C8.9724 14.1215 8.94405 14.1994 8.93157 14.2806C8.91908 14.3618 8.92271 14.4446 8.94224 14.5244C8.96177 14.6041 8.99682 14.6793 9.04539 14.7455C9.09396 14.8117 9.1551 14.8677 9.22531 14.9103C9.36712 14.9964 9.53729 15.0225 9.6984 14.9831C9.77817 14.9636 9.85332 14.9285 9.91954 14.88C9.98577 14.8314 10.0418 14.7702 10.0844 14.7ZM11.5625 10.7444C11.794 9.46808 11.8987 8.17197 11.875 6.87503C11.8744 5.98959 11.6052 5.12517 11.1029 4.39601C10.6005 3.66684 9.8888 3.10725 9.0617 2.79118C8.23459 2.47512 7.33105 2.41746 6.47047 2.62582C5.6099 2.83418 4.8328 3.29876 4.24187 3.95816C4.18432 4.01878 4.13952 4.09034 4.11011 4.16859C4.08071 4.24684 4.0673 4.33019 4.07068 4.41372C4.07406 4.49724 4.09416 4.57924 4.12979 4.65486C4.16542 4.73047 4.21586 4.79818 4.27812 4.85395C4.34038 4.90973 4.4132 4.95246 4.49226 4.9796C4.57133 5.00673 4.65503 5.01774 4.73842 5.01195C4.82181 5.00617 4.9032 4.98371 4.97776 4.94591C5.05232 4.90812 5.11854 4.85575 5.1725 4.79191C5.59455 4.32083 6.14961 3.98891 6.76432 3.84001C7.37903 3.69111 8.02445 3.73224 8.61528 3.95797C9.20612 4.1837 9.71455 4.5834 10.0734 5.10424C10.4322 5.62508 10.6246 6.24255 10.625 6.87503C10.6481 8.09178 10.5513 9.30785 10.3362 10.5057C10.3047 10.6683 10.339 10.8367 10.4315 10.9741C10.5241 11.1114 10.6674 11.2064 10.83 11.2382C10.8697 11.2461 10.9101 11.2501 10.9506 11.25C11.0954 11.2497 11.2355 11.199 11.3471 11.1068C11.4587 11.0146 11.5348 10.8865 11.5625 10.7444ZM4.375 6.87503C4.37482 6.70059 4.38924 6.52644 4.41812 6.35441C4.43679 6.27159 4.43838 6.18583 4.42281 6.10238C4.40724 6.01892 4.37483 5.93951 4.32755 5.869C4.28028 5.79848 4.21914 5.73833 4.14785 5.69223C4.07657 5.64612 3.99664 5.61502 3.91294 5.60082C3.82924 5.58662 3.74352 5.58962 3.66102 5.60964C3.57852 5.62967 3.50096 5.66629 3.43308 5.71727C3.3652 5.76825 3.30841 5.83253 3.26619 5.90618C3.22397 5.97983 3.19719 6.06132 3.1875 6.14566C3.14624 6.3866 3.12533 6.63058 3.125 6.87503C3.125 9.77816 2.28375 11.25 0.625 11.25C0.45924 11.25 0.300268 11.3159 0.183058 11.4331C0.065848 11.5503 0 11.7093 0 11.875C0 12.0408 0.065848 12.1998 0.183058 12.317C0.300268 12.4342 0.45924 12.5 0.625 12.5C3.04312 12.5 4.375 10.5 4.375 6.87503ZM12.9375 14.6338C13.9661 12.1801 14.4563 9.53433 14.375 6.87503C14.3779 5.83686 14.1427 4.81185 13.6875 3.87878C13.6516 3.80491 13.6015 3.73884 13.54 3.68434C13.4786 3.62983 13.407 3.58796 13.3294 3.56112C13.2518 3.53428 13.1696 3.52299 13.0876 3.5279C13.0056 3.5328 12.9254 3.55381 12.8516 3.58972C12.7777 3.62563 12.7116 3.67573 12.6571 3.73718C12.6026 3.79862 12.5607 3.8702 12.5339 3.94782C12.5071 4.02545 12.4958 4.1076 12.5007 4.18958C12.5056 4.27157 12.5266 4.35179 12.5625 4.42566C12.9344 5.18851 13.1268 6.02635 13.125 6.87503C13.2037 9.35551 12.7522 11.8242 11.8006 14.1163C11.7667 14.1911 11.748 14.2719 11.7453 14.354C11.7427 14.4361 11.7563 14.518 11.7853 14.5948C11.8143 14.6717 11.8582 14.7421 11.9145 14.8019C11.9707 14.8618 12.0382 14.91 12.1131 14.9438C12.1941 14.981 12.2821 15.0002 12.3712 15C12.4908 14.9995 12.6076 14.9647 12.708 14.8998C12.8084 14.8349 12.888 14.7426 12.9375 14.6338ZM1.875 8.75003V6.87503C1.87665 5.3837 2.46982 3.95392 3.52435 2.89938C4.57888 1.84485 6.00866 1.25169 7.5 1.25003C8.71774 1.24598 9.90324 1.64114 10.875 2.37503C11.0076 2.47449 11.1743 2.51719 11.3384 2.49375C11.5025 2.47031 11.6505 2.38264 11.75 2.25003C11.8495 2.11742 11.8922 1.95074 11.8687 1.78664C11.8453 1.62255 11.7576 1.47449 11.625 1.37503C10.4371 0.478421 8.98828 -0.00452175 7.5 3.1909e-05C5.6773 0.0021822 3.92986 0.727201 2.64102 2.01605C1.35217 3.30489 0.62715 5.05233 0.625 6.87503V8.75003C0.625 8.91579 0.690848 9.07476 0.808058 9.19197C0.925268 9.30918 1.08424 9.37503 1.25 9.37503C1.41576 9.37503 1.57473 9.30918 1.69194 9.19197C1.80915 9.07476 1.875 8.91579 1.875 8.75003Z" fill="white"/>
</g>
<defs>
<clipPath id="clip0_3091_13670">
<rect width="15" height="15" fill="white"/>
</clipPath>
</defs>
</svg>
