<svg width="14" height="12" viewBox="0 0 14 12" fill="none" xmlns="http://www.w3.org/2000/svg">
<path d="M10.2902 6.37585H9.23678C9.12659 6.37585 9.02522 6.43019 8.96351 6.52528C8.9018 6.61585 8.88858 6.73358 8.92825 6.83774C8.9591 6.92377 8.97673 7.01434 8.97673 7.10491C8.97673 7.51245 8.65497 7.84755 8.25388 7.84755C7.85279 7.84755 7.53103 7.51698 7.53103 7.10491C7.53103 7.01434 7.54866 6.92377 7.57951 6.83774C7.61918 6.73358 7.60596 6.61585 7.54425 6.52528C7.48255 6.43472 7.38117 6.37585 7.27098 6.37585H6.21756C6.21756 6.37585 6.20874 6.37585 6.20433 6.37585C6.20433 6.36226 6.20433 6.34868 6.20433 6.33057V5.61962C6.97567 5.64226 7.64563 5.00377 7.64563 4.19774C7.64563 3.3917 6.98889 2.75774 6.20433 2.77585V2.14641C6.20433 1.74792 5.89139 1.42642 5.50352 1.42642H1.44409C1.05622 1.43094 0.738874 1.75698 0.738874 2.15547V6.33509C0.738874 6.46641 0.774135 6.58415 0.831434 6.6883C0.752097 6.80604 0.703613 6.94641 0.703613 7.10038V11.28C0.703613 11.6785 1.01655 12 1.40443 12H5.47267C5.6093 12 5.73712 11.9592 5.84291 11.8868C5.94869 11.9547 6.07651 12 6.21315 12H10.2814C10.6693 12 10.9822 11.6785 10.9822 11.28V7.10038C10.9822 6.70189 10.6693 6.38038 10.2814 6.38038L10.2902 6.37585ZM1.40002 2.15547C1.40002 2.13283 1.41765 2.11472 1.43969 2.11472H5.50793C5.52997 2.11472 5.5476 2.13283 5.5476 2.15547V3.19698C5.5476 3.31019 5.60049 3.41434 5.69305 3.47774C5.78561 3.54113 5.90021 3.55472 6.00158 3.51396C6.08533 3.47774 6.17789 3.45962 6.26604 3.45962C6.66273 3.45962 6.98889 3.79019 6.98889 4.20226C6.98889 4.61434 6.66713 4.94491 6.26604 4.94491C6.17348 4.94491 6.08533 4.92679 6.00158 4.89057C5.90021 4.84981 5.78561 4.8634 5.69305 4.92679C5.60049 4.99019 5.5476 5.09434 5.5476 5.20755V6.33509C5.5476 6.35774 5.52997 6.37585 5.50793 6.37585H4.40602C4.29583 6.37585 4.19005 6.43472 4.12834 6.52981C4.06663 6.62491 4.05782 6.74717 4.10189 6.85132C4.14156 6.94641 4.1636 7.04604 4.1636 7.14566C4.1636 7.34038 4.08867 7.51245 3.96967 7.64377C3.84184 7.77057 3.66554 7.85208 3.4716 7.85208C3.07492 7.85208 2.74875 7.52151 2.74875 7.10943C2.74875 7.01887 2.76638 6.92377 2.80164 6.83774C2.84131 6.73358 2.82809 6.61585 2.76638 6.52075C2.70468 6.42566 2.6033 6.37132 2.49311 6.37132H1.44409C1.42206 6.37132 1.40443 6.35321 1.40443 6.33057V2.15547H1.40002ZM1.40883 11.3208C1.3868 11.3208 1.36917 11.3026 1.36917 11.28V7.10038C1.36917 7.07774 1.3868 7.05962 1.40883 7.05962H2.06116C2.06116 7.09132 2.06116 7.12302 2.06116 7.15019C2.06116 7.93358 2.68264 8.57208 3.44516 8.57208C3.83744 8.57208 4.19005 8.4 4.44128 8.13283C4.69692 7.87472 4.86001 7.51698 4.86001 7.11849C4.86001 7.10038 4.86001 7.08226 4.86001 7.05962H5.48148C5.48148 7.05962 5.52115 7.07774 5.52115 7.10038V8.20076C5.52115 8.31396 5.57845 8.42264 5.67101 8.48604C5.76357 8.54943 5.88258 8.55849 5.98395 8.51321C6.07651 8.47245 6.17348 8.44981 6.27045 8.44981C6.50846 8.44981 6.71562 8.56755 6.84785 8.74868C6.91837 8.86189 6.96244 8.99774 6.96244 9.14717C6.96244 9.55472 6.64069 9.88981 6.23959 9.88981C6.14703 9.88981 6.05888 9.8717 5.97514 9.83547C5.87376 9.79472 5.75916 9.8083 5.6666 9.8717C5.57404 9.93509 5.52115 10.0392 5.52115 10.1525V10.1751C5.52115 10.1751 5.52115 10.1796 5.52115 10.1842V11.28C5.52115 11.3026 5.50352 11.3208 5.48148 11.3208H1.40883ZM10.3299 11.28C10.3299 11.3026 10.3122 11.3208 10.2902 11.3208H6.22196C6.22196 11.3208 6.18229 11.3026 6.18229 11.28V10.6098C6.96245 10.6596 7.65444 10.0075 7.65444 9.19245C7.65444 8.88453 7.55747 8.60377 7.38999 8.3683C7.13434 7.96981 6.68476 7.7117 6.18229 7.72528V7.09585C6.18229 7.07321 6.19993 7.05509 6.22196 7.05509H6.87429C6.87429 7.05509 6.87429 7.08679 6.87429 7.10491C6.87429 7.8883 7.49577 8.52679 8.25829 8.52679C9.02081 8.52679 9.64228 7.8883 9.64228 7.10491C9.64228 7.08679 9.64228 7.07321 9.64228 7.05509H10.2946C10.3167 7.05509 10.3343 7.07321 10.3343 7.09585V11.2755L10.3299 11.28Z" fill="white"/>
<path d="M12.5954 0H8.52715C8.13928 0 7.82634 0.321509 7.82634 0.72V1.82038C7.82634 1.93358 7.88364 2.04226 7.9762 2.10566C8.06876 2.16906 8.18777 2.17811 8.28914 2.13283C8.3817 2.09208 8.47867 2.06943 8.57564 2.06943C8.97232 2.06943 9.29849 2.4 9.29849 2.81208C9.29849 3.22415 8.97673 3.55472 8.57564 3.55472C8.47426 3.55472 8.37729 3.53208 8.28914 3.49132C8.18777 3.44604 8.06876 3.45509 7.9762 3.51849C7.88364 3.58189 7.82634 3.68604 7.82634 3.80377V4.89962C7.82634 5.29811 8.13928 5.61962 8.52715 5.61962H9.39986C9.6511 6.01811 10.0875 6.26717 10.5591 6.26717C11.0307 6.26717 11.467 6.01811 11.7183 5.61962H12.591C12.9789 5.61962 13.2918 5.29358 13.2918 4.89962V3.88528C13.2918 3.69962 13.1419 3.54566 12.9612 3.54566C12.7805 3.54566 12.6307 3.69962 12.6307 3.88528V4.89962C12.6307 4.92226 12.613 4.94038 12.591 4.94038H11.5199C11.3877 4.94038 11.2687 5.02189 11.2158 5.14415C11.1012 5.41585 10.8412 5.58792 10.5547 5.58792C10.2682 5.58792 10.0081 5.41132 9.89352 5.14415C9.84063 5.02189 9.72162 4.94038 9.58939 4.94038H8.51834C8.4963 4.94038 8.47867 4.92226 8.47867 4.89962V4.22943C9.26323 4.28377 9.95082 3.62717 9.95082 2.81208C9.95082 1.99698 9.26323 1.34491 8.47867 1.39472V0.72C8.47867 0.697358 8.4963 0.679245 8.51834 0.679245H12.5866C12.6086 0.679245 12.6262 0.697358 12.6262 0.72V1.91547C12.6262 2.10113 12.7761 2.25509 12.9568 2.25509C13.1375 2.25509 13.2874 2.10113 13.2874 1.91547V0.72C13.2874 0.321509 12.9745 0 12.5866 0H12.5954Z" fill="white"/>
<path d="M12.9656 2.53585C12.7849 2.53585 12.6351 2.68981 12.6351 2.87547V2.92981C12.6351 3.11547 12.7849 3.26943 12.9656 3.26943C13.1463 3.26943 13.2962 3.11547 13.2962 2.92981V2.87547C13.2962 2.68981 13.1463 2.53585 12.9656 2.53585Z" fill="white"/>
</svg>
