<svg width="19" height="20" viewBox="0 0 19 20" fill="none" xmlns="http://www.w3.org/2000/svg">
<path d="M18.6533 17.4775L14.9755 13.7985C17.7274 10.1214 16.9771 4.90985 13.2996 2.15824C9.6222 -0.593375 4.41022 0.156901 1.65838 3.83402C-1.09347 7.51113 -0.343128 12.7227 3.3343 15.4743C6.28831 17.6846 10.3456 17.6846 13.2996 15.4743L16.9789 19.1533C17.4413 19.6156 18.1909 19.6156 18.6532 19.1533C19.1156 18.6909 19.1156 17.9414 18.6532 17.4791L18.6533 17.4775ZM8.34762 14.7642C5.0793 14.7642 2.42984 12.115 2.42984 8.84692C2.42984 5.57888 5.0793 2.92963 8.34762 2.92963C11.6159 2.92963 14.2654 5.57888 14.2654 8.84692C14.2619 12.1135 11.6145 14.7607 8.34762 14.7642Z" fill="#9E9E9E"/>
</svg>
