<svg width="18" height="14" viewBox="0 0 18 14" fill="none" xmlns="http://www.w3.org/2000/svg">
<path d="M14.25 0H3.75C2.7558 0.00101045 1.80267 0.336561 1.09966 0.933049C0.396661 1.52954 0.00119089 2.33826 0 3.18182L0 10.8182C0.00119089 11.6617 0.396661 12.4705 1.09966 13.067C1.80267 13.6634 2.7558 13.999 3.75 14H14.25C15.2442 13.999 16.1973 13.6634 16.9003 13.067C17.6033 12.4705 17.9988 11.6617 18 10.8182V3.18182C17.9988 2.33826 17.6033 1.52954 16.9003 0.933049C16.1973 0.336561 15.2442 0.00101045 14.25 0ZM3.75 1.27273H14.25C14.6991 1.27348 15.1376 1.38824 15.5092 1.60224C15.8808 1.81624 16.1684 2.11969 16.335 2.47355L10.5915 7.34745C10.1688 7.70465 9.59656 7.90521 9 7.90521C8.40344 7.90521 7.83118 7.70465 7.4085 7.34745L1.665 2.47355C1.83161 2.11969 2.11921 1.81624 2.49079 1.60224C2.86236 1.38824 3.30091 1.27348 3.75 1.27273ZM14.25 12.7273H3.75C3.15326 12.7273 2.58097 12.5261 2.15901 12.1681C1.73705 11.8101 1.5 11.3245 1.5 10.8182V4.13636L6.348 8.24727C7.05197 8.84307 8.00569 9.17766 9 9.17766C9.99431 9.17766 10.948 8.84307 11.652 8.24727L16.5 4.13636V10.8182C16.5 11.3245 16.2629 11.8101 15.841 12.1681C15.419 12.5261 14.8467 12.7273 14.25 12.7273Z" fill="#222222"/>
</svg>
