<svg width="14" height="14" viewBox="0 0 14 14" fill="none" xmlns="http://www.w3.org/2000/svg">
<g clip-path="url(#clip0_2688_12991)">
<path d="M13.4167 5.23775C13.262 5.23775 13.1136 5.29921 13.0042 5.40861C12.8948 5.518 12.8333 5.66637 12.8333 5.82108V8.75H10.5C10.0359 8.75 9.59075 8.93437 9.26256 9.26256C8.93437 9.59075 8.75 10.0359 8.75 10.5V12.8333H2.91667C2.45254 12.8333 2.00742 12.649 1.67923 12.3208C1.35104 11.9926 1.16667 11.5475 1.16667 11.0833V2.91667C1.16667 2.45254 1.35104 2.00742 1.67923 1.67923C2.00742 1.35104 2.45254 1.16667 2.91667 1.16667H8.19117C8.34588 1.16667 8.49425 1.10521 8.60365 0.995812C8.71304 0.886416 8.7745 0.738043 8.7745 0.583333C8.7745 0.428624 8.71304 0.280251 8.60365 0.170854C8.49425 0.0614582 8.34588 0 8.19117 0L2.91667 0C2.1434 0.00092625 1.40208 0.308515 0.855295 0.855295C0.308515 1.40208 0.00092625 2.1434 0 2.91667L0 11.0833C0.00092625 11.8566 0.308515 12.5979 0.855295 13.1447C1.40208 13.6915 2.1434 13.9991 2.91667 14H9.53342C9.91662 14.0011 10.2962 13.9262 10.6503 13.7796C11.0043 13.633 11.3258 13.4177 11.5961 13.146L13.1454 11.5955C13.4171 11.3253 13.6325 11.004 13.7792 10.65C13.9259 10.2961 14.0009 9.91656 14 9.53342V5.82108C14 5.66637 13.9385 5.518 13.8291 5.40861C13.7198 5.29921 13.5714 5.23775 13.4167 5.23775ZM10.7713 12.3212C10.5368 12.5551 10.2402 12.717 9.91667 12.7878V10.5C9.91667 10.3453 9.97812 10.1969 10.0875 10.0875C10.1969 9.97812 10.3453 9.91667 10.5 9.91667H12.7896C12.7174 10.2396 12.5557 10.5355 12.3229 10.7707L10.7713 12.3212Z" fill="white"/>
<path d="M10.8828 0.542522L3.77076 7.65452C3.49913 7.92469 3.28378 8.24605 3.13719 8.60001C2.9906 8.95397 2.91568 9.33349 2.91676 9.7166V10.5C2.91676 10.6547 2.97822 10.8031 3.08761 10.9125C3.19701 11.0219 3.34538 11.0834 3.50009 11.0834H4.28351C4.66662 11.0844 5.04614 11.0095 5.4001 10.8629C5.75406 10.7163 6.07543 10.501 6.34559 10.2294L13.4576 3.11735C13.7985 2.77562 13.9899 2.31263 13.9899 1.82994C13.9899 1.34724 13.7985 0.884256 13.4576 0.542522C13.1109 0.211126 12.6498 0.0261841 12.1702 0.0261841C11.6906 0.0261841 11.2294 0.211126 10.8828 0.542522ZM12.6328 2.29252L5.52076 9.40452C5.19183 9.73144 4.74726 9.91547 4.28351 9.91669H4.08343V9.7166C4.08464 9.25285 4.26867 8.80828 4.59559 8.47935L11.7076 1.36736C11.8322 1.24833 11.9979 1.18191 12.1702 1.18191C12.3425 1.18191 12.5082 1.24833 12.6328 1.36736C12.7552 1.49016 12.824 1.65651 12.824 1.82994C12.824 2.00337 12.7552 2.16972 12.6328 2.29252Z" fill="white"/>
</g>
<defs>
<clipPath id="clip0_2688_12991">
<rect width="14" height="14" fill="white"/>
</clipPath>
</defs>
</svg>
