<svg width="16" height="16" viewBox="0 0 16 16" fill="none" xmlns="http://www.w3.org/2000/svg">
<g clip-path="url(#clip0_3528_6891)">
<path d="M10.5 6.75C11.5337 6.75 12.375 5.90875 12.375 4.875C12.375 3.84125 11.5337 3 10.5 3C9.46625 3 8.625 3.84125 8.625 4.875C8.625 4.98125 8.63437 5.08563 8.65125 5.1875L6.11562 6.59625C5.785 6.30375 5.35063 6.12563 4.875 6.12563C3.84125 6.12563 3 6.96688 3 8.00063C3 9.03438 3.84125 9.87563 4.875 9.87563C5.35063 9.87563 5.785 9.6975 6.11562 9.405L8.65125 10.8138C8.63437 10.9156 8.625 11.0194 8.625 11.1263C8.625 12.16 9.46625 13.0013 10.5 13.0013C11.5337 13.0013 12.375 12.16 12.375 11.1263C12.375 10.0925 11.5337 9.25125 10.5 9.25125C10.0244 9.25125 9.59 9.42937 9.25938 9.72188L6.72375 8.31313C6.74062 8.21125 6.75 8.1075 6.75 8.00063C6.75 7.89375 6.74062 7.79 6.72375 7.68813L9.25938 6.27938C9.59 6.57187 10.0244 6.75 10.5 6.75ZM10.5 4.25C10.845 4.25 11.125 4.53062 11.125 4.875C11.125 5.21938 10.845 5.5 10.5 5.5C10.155 5.5 9.875 5.21938 9.875 4.875C9.875 4.53062 10.155 4.25 10.5 4.25ZM4.875 8.625C4.53 8.625 4.25 8.34438 4.25 8C4.25 7.65562 4.53 7.375 4.875 7.375C5.22 7.375 5.5 7.65562 5.5 8C5.5 8.34438 5.22 8.625 4.875 8.625ZM10.5 10.5C10.845 10.5 11.125 10.7806 11.125 11.125C11.125 11.4694 10.845 11.75 10.5 11.75C10.155 11.75 9.875 11.4694 9.875 11.125C9.875 10.7806 10.155 10.5 10.5 10.5ZM12.375 0.5H3.625C1.90188 0.5 0.5 1.90188 0.5 3.625V12.375C0.5 14.0981 1.90188 15.5 3.625 15.5H12.375C14.0981 15.5 15.5 14.0981 15.5 12.375V3.625C15.5 1.90188 14.0981 0.5 12.375 0.5ZM14.25 12.375C14.25 13.4087 13.4087 14.25 12.375 14.25H3.625C2.59125 14.25 1.75 13.4087 1.75 12.375V3.625C1.75 2.59125 2.59125 1.75 3.625 1.75H12.375C13.4087 1.75 14.25 2.59125 14.25 3.625V12.375Z" fill="#6C757D"/>
</g>
<defs>
<clipPath id="clip0_3528_6891">
<rect width="15" height="15" fill="white" transform="translate(0.5 0.5)"/>
</clipPath>
</defs>
</svg>
