<svg width="14" height="16" viewBox="0 0 14 16" fill="none" xmlns="http://www.w3.org/2000/svg">
<path d="M11.375 5.765V4.87499C11.375 2.45876 9.41625 0.5 6.99999 0.5C4.58373 0.5 2.625 2.45876 2.625 4.87499V5.765C1.48752 6.26144 0.751641 7.38392 0.75 8.62499V12.375C0.752051 14.1 2.14995 15.4979 3.87498 15.5H10.125C11.85 15.4979 13.2479 14.1 13.25 12.375V8.62499C13.2484 7.38392 12.5125 6.26144 11.375 5.765ZM7.62498 11.125C7.62498 11.4702 7.34517 11.75 6.99999 11.75C6.65481 11.75 6.375 11.4702 6.375 11.125V9.875C6.375 9.52982 6.65481 9.25001 6.99999 9.25001C7.34517 9.25001 7.62498 9.52982 7.62498 9.875V11.125ZM10.125 5.50001H3.87498V4.87502C3.87498 3.14914 5.27408 1.75001 6.99999 1.75001C8.7259 1.75001 10.125 3.14911 10.125 4.87502V5.50001Z" fill="#6C757D"/>
</svg>
