<svg width="40" height="40" viewBox="0 0 40 40" fill="none" xmlns="http://www.w3.org/2000/svg">
<path d="M25.5726 5.20271H13.3065V7.28375C13.3065 7.28375 13.4066 7.40381 13.4266 7.40381H14.6872C14.6872 7.40381 14.9473 7.66394 14.9874 7.74398C15.1674 8.16419 14.8673 8.52437 14.4471 8.5844C13.7067 8.68445 12.5061 8.60441 12.226 7.76399C12.1059 7.40381 12.0859 5.36279 12.1659 4.96259C12.226 4.64243 12.6862 4.16219 13.0064 4.08215C17.2885 4.02212 21.6107 4.00211 25.8928 4.08215C26.333 4.20221 26.6932 4.64243 26.7532 5.08265C26.8133 5.56289 26.8133 6.94358 26.7532 7.42382C26.6732 8.10416 26.0129 8.50436 25.3926 8.56439C22.7913 8.80451 19.8298 8.3843 17.1885 8.56439C16.7883 8.48435 16.4881 8.20421 16.6082 7.76399C16.6282 7.68395 16.9283 7.40381 16.9483 7.40381H25.4726C25.4726 7.40381 25.5927 7.30376 25.5927 7.28375V5.20271H25.5726Z" fill="white"/>
<path d="M4.82237 22.4312H20.2501C20.7904 22.8113 20.6503 23.5117 19.99 23.5917H5.12252C4.38215 23.6518 4.10201 22.6913 4.82237 22.4312Z" fill="white"/>
<path d="M4.56225 18.4492C4.6623 18.3491 4.96245 18.2691 5.12253 18.2691H19.99C20.6503 18.3491 20.8104 19.0295 20.2501 19.4097L4.96245 19.4497C4.44219 19.4497 4.22208 18.7894 4.56225 18.4492Z" fill="white"/>
<path d="M4.7426 26.5733H20.0503C20.9107 26.6533 20.6305 27.8139 19.8101 27.7339H5.20283C4.48247 27.7339 4.04225 27.0135 4.76261 26.5733H4.7426Z" fill="white"/>
<path d="M4.74255 14.207H20.0502C20.9507 14.2871 20.5905 15.4677 19.73 15.3676H5.28282C4.54245 15.3876 4.00218 14.7073 4.76256 14.207H4.74255Z" fill="white"/>
<path d="M4.56236 33.5767C4.22219 33.2365 4.46231 32.5762 4.96256 32.5762C7.36376 32.7763 10.2052 32.2961 12.5464 32.5762C13.3267 32.6762 13.2067 33.7168 12.4663 33.7568C10.1051 33.5967 7.4438 33.9769 5.10263 33.7568C4.94255 33.7568 4.66241 33.6968 4.54235 33.5767H4.56236Z" fill="white"/>
<path d="M31.1556 35.7179C30.3552 35.7179 30.6153 36.7984 30.5553 37.2986C30.4552 38.099 29.7949 38.7794 28.9745 38.8394H2.70135C2.14107 38.8594 1.18059 37.999 1.18059 37.4787V8.56428H6.68334C7.28364 8.56428 8.52426 7.64382 8.52426 7.04352V1.26063C8.52426 1.26063 8.62431 1.14057 8.64432 1.14057H29.1346C29.7549 1.14057 30.5553 2.08104 30.5553 2.68134V10.7854C30.6954 11.4657 31.7359 11.3457 31.7559 10.6453C31.5558 8.08404 32.016 5.14257 31.7359 2.62131C31.5758 1.24062 30.5153 0.16008 29.1346 0H8.44422C7.78389 0.14007 7.30365 0.46023 6.8034 0.88044C4.6023 2.74137 2.52126 5.30265 0.46023 7.34367C0.18009 7.70385 0.06003 8.16408 0 8.6043V37.4587C0.18009 38.7794 1.12056 39.6198 2.34117 40H29.2346L29.8549 39.7999C30.5353 39.5398 31.2556 38.8594 31.5158 38.1791C31.7359 37.6188 32.056 35.7379 31.1556 35.7179ZM7.34367 2.08104V6.8034C7.34367 6.98349 6.78339 7.38369 6.6033 7.38369H2.04102L7.34367 2.08104Z" fill="white"/>
<path d="M39.0794 21.1105C39.4596 20.05 39.9399 19.6298 39.2395 18.4091C38.7993 17.6688 38.4591 17.7088 37.8388 17.3086C37.0784 16.8284 37.3586 16.048 36.9984 15.3276C36.6182 14.5472 35.6177 14.0069 34.7573 14.047C34.4971 14.047 34.217 14.187 33.9769 14.207C33.1565 14.2271 32.9964 13.5667 32.3961 13.2065C31.5557 12.6863 30.4551 12.7463 29.6747 13.3466C29.2945 13.6468 29.0944 14.107 28.5542 14.187C28.1139 14.2471 27.7538 14.027 27.3135 14.047C26.4731 14.047 25.6127 14.6072 25.2525 15.3476C25.0124 15.8479 25.0924 16.168 24.9724 16.6283C24.8123 17.3086 24.0719 17.3886 23.5917 17.7488C22.7713 18.3891 22.4911 19.4096 22.8313 20.3901C22.9314 20.6703 23.2115 21.0305 23.2715 21.2906C23.4116 21.9909 22.9714 22.2911 22.7913 22.8914C22.5111 23.8719 22.8313 24.8924 23.6717 25.4927C24.0519 25.7728 24.5522 25.7928 24.8123 26.2331C25.0524 26.6333 24.9924 27.0535 25.1124 27.4937C25.3526 28.3141 26.173 28.9944 27.0134 29.0545V34.4772C27.6937 37.0185 29.8148 34.7373 31.1154 34.157C31.3356 34.157 33.0164 35.4177 33.4966 35.5777C34.4971 35.9179 35.1174 35.2176 35.2175 34.2571C35.3776 32.5962 35.0974 30.7353 35.2175 29.0545C36.1179 28.9944 36.8783 28.2541 37.1184 27.3936C37.2185 27.0335 37.1785 26.5732 37.3786 26.2331C37.6387 25.7928 38.3391 25.6928 38.7393 25.3326C39.3596 24.7923 39.6197 23.9519 39.5196 23.1515C39.3996 22.2911 38.6992 22.091 39.0394 21.0905L39.0794 21.1105ZM34.0969 34.4172C34.0969 34.4172 33.9769 34.5772 33.9369 34.4972C33.2165 34.157 31.8358 32.9364 31.0954 32.9564C30.295 32.9764 29.0744 34.2971 28.234 34.4372V28.9544C29.0544 28.8544 29.4146 29.7148 30.0749 30.055C30.6752 30.3551 31.4156 30.3751 32.0559 30.155C32.8963 29.8349 33.1164 28.8544 34.1169 28.9744V34.4172H34.0969ZM38.3391 23.9519C38.139 24.6323 36.9784 24.8124 36.4781 25.5327C35.9579 26.2931 36.278 27.3336 35.4976 27.7538C34.8173 28.134 34.3371 27.7138 33.5967 27.7938C32.4361 27.9339 32.0559 29.0545 31.2555 29.1145C30.275 29.1745 30.275 28.4942 29.5947 28.114C29.1545 27.8539 28.6342 27.7338 28.1139 27.7938C27.5737 27.8539 27.3336 28.114 26.7533 27.7538C26.0329 27.3136 26.313 26.2131 25.7127 25.4327C25.0724 24.5922 23.4316 24.5522 23.9719 23.1115C24.272 22.2911 24.6322 22.151 24.4521 21.0705C24.312 20.3101 23.5317 19.8499 24.0519 18.9694C24.3521 18.4692 25.1925 18.3891 25.6927 17.7888C26.3331 16.9884 26.0129 15.8879 26.7533 15.4076C27.3736 15.0074 27.7338 15.3676 28.3541 15.3676C28.8943 15.3676 29.5547 15.1275 29.9549 14.7673C30.235 14.5272 30.3351 14.147 30.7953 14.047C31.9959 13.8068 32.136 14.8874 33.1765 15.2276C34.0769 15.5277 34.317 15.1675 34.9974 15.2075C36.298 15.2876 35.9379 16.8284 36.4981 17.6288C36.9984 18.3491 38.1189 18.5092 38.3391 19.1495C38.6592 20.11 37.7988 20.5502 37.7788 21.5107C37.7788 22.5112 38.6192 23.0515 38.3591 23.9519H38.3391Z" fill="#FFC107"/>
<path d="M30.3951 16.7283C27.3536 17.0685 25.4726 20.4702 26.5132 23.2916C27.9339 27.1535 33.3366 27.6538 35.3776 24.052C37.4586 20.3901 34.5372 16.2481 30.3951 16.7283ZM30.6952 25.2926C26.4531 24.9124 26.3731 18.4492 30.4751 17.8889C36.178 17.1085 36.298 25.7928 30.6952 25.2926Z" fill="#FFC107"/>
</svg>
