<svg width="16" height="16" viewBox="0 0 16 16" fill="none" xmlns="http://www.w3.org/2000/svg">
<path d="M3.58691 2.54683H3.5045C3.5045 2.54683 3.55694 2.5768 3.58691 2.54683Z" fill="#232B37"/>
<path d="M4.26873 2.54683H4.18631C4.18631 2.54683 4.23876 2.5768 4.26873 2.54683Z" fill="#232B37"/>
<path d="M15.47 12.5868C15.4326 12.0698 15.3127 11.8001 14.9381 11.4254C15.2902 11.1257 15.4251 10.8335 15.47 10.384C15.515 9.88199 15.515 9.13274 15.455 8.63074C15.4101 8.20367 15.2153 7.98639 14.9306 7.67919C15.2977 7.37949 15.4401 7.05732 15.47 6.59278C15.5 6.21815 15.5 5.80607 15.4775 5.43144C15.4476 4.88449 15.4326 4.64473 15.1628 4.15022C14.6384 3.19118 14.0015 2.20217 13.3796 1.30307C13.0574 0.838534 12.6828 0.478894 12.0834 0.501372H3.93157C3.1973 0.471402 2.76274 0.935937 2.44056 1.56531C1.83367 2.44193 1.25674 3.34103 0.724775 4.26261C0.597403 4.4724 0.52997 4.68968 0.5 4.92944V6.68269C0.522478 7.0723 0.717283 7.42445 1.02448 7.6717L1.00949 7.71666C0.717283 7.98639 0.522478 8.28609 0.507493 8.70567V10.4289C0.52997 10.8186 0.724775 11.1707 1.03197 11.418L1.01698 11.4629C0.724775 11.7326 0.52997 12.0323 0.514985 12.4519V14.1752C0.537463 14.8196 1.16683 15.5164 1.82617 15.4639V15.4939H14.1513V15.4639C14.6908 15.5313 15.3277 14.9394 15.4401 14.4374C15.5375 14.0104 15.5075 13.0588 15.4775 12.5943L15.47 12.5868ZM3.3022 1.43793C3.5045 1.23564 3.75924 1.13823 4.04396 1.13074H11.9036C12.1958 1.14573 12.458 1.24313 12.6603 1.45292L14.024 3.64073H1.93107L3.3022 1.43044V1.43793ZM14.8032 14.1452C14.6908 14.6023 14.2862 14.857 13.8367 14.872H2.14835C1.71379 14.872 1.28671 14.6322 1.15934 14.1902C1.07692 13.883 1.07692 12.7217 1.15934 12.4145C1.25674 12.0623 1.56394 11.8001 1.92358 11.7401H14.0315C14.3911 11.8001 14.6908 12.0623 14.7957 12.4145C14.8781 12.7142 14.8781 13.838 14.8107 14.1377L14.8032 14.1452ZM14.8032 10.4065C14.6908 10.8635 14.2862 11.1183 13.8367 11.1332H2.14835C1.71379 11.1332 1.28671 10.8935 1.15934 10.4514C1.07692 10.1442 1.07692 8.98289 1.15934 8.6757C1.25674 8.32355 1.56394 8.06131 1.92358 8.00137H14.0315C14.3911 8.06131 14.6908 8.32355 14.7957 8.6757C14.8781 8.9754 14.8781 10.0993 14.8107 10.399L14.8032 10.4065ZM14.8032 6.66771C14.6908 7.12475 14.2862 7.37949 13.8367 7.39448H2.14835C1.71379 7.39448 1.28671 7.15472 1.15934 6.71266C1.07692 6.40547 1.07692 5.24413 1.15934 4.93694C1.25674 4.58479 1.56394 4.32255 1.92358 4.26261H14.0315C14.3911 4.32255 14.6908 4.58479 14.7957 4.93694C14.8781 5.23664 14.8781 6.36051 14.8107 6.66021L14.8032 6.66771Z" fill="#232B37"/>
<path d="M8.34466 5.51386H13.2223C13.7018 5.48389 13.7018 4.89947 13.2223 4.8695H8.29221C7.83516 4.94443 7.9026 5.49887 8.34466 5.51386Z" fill="#232B37"/>
<path d="M13.2822 6.12824H8.23227C7.94006 6.22565 7.88761 6.56281 8.15734 6.72015C9.89561 6.75762 11.6638 6.75762 13.4021 6.72015C13.6943 6.55532 13.6119 6.16571 13.2822 6.12824Z" fill="#232B37"/>
<path d="M8.34466 9.26011H13.2223C13.7018 9.23014 13.7018 8.64573 13.2223 8.61576H8.29221C7.83516 8.69068 7.9026 9.24513 8.34466 9.26011Z" fill="#232B37"/>
<path d="M13.2822 9.8745H8.23227C7.94006 9.9719 7.88761 10.3091 8.15734 10.4664C9.89561 10.5039 11.6638 10.5039 13.4021 10.4664C13.6943 10.3016 13.6119 9.91196 13.2822 9.8745Z" fill="#232B37"/>
<path d="M8.34466 12.9989H13.2223C13.7018 12.9689 13.7018 12.3845 13.2223 12.3545H8.29221C7.83516 12.4294 7.9026 12.9839 8.34466 12.9989Z" fill="#232B37"/>
<path d="M13.2822 13.6133H8.23227C7.94006 13.7107 7.88761 14.0478 8.15734 14.2052C9.89561 14.2426 11.6638 14.2426 13.4021 14.2052C13.6943 14.0403 13.6119 13.6507 13.2822 13.6133Z" fill="#232B37"/>
<path d="M2.65784 4.88449C1.53397 4.92195 1.45904 6.55532 2.48551 6.73514C3.9016 6.98239 3.97652 4.83953 2.65784 4.88449ZM2.72527 6.12824C2.33566 6.18069 2.24575 5.61126 2.59041 5.52884C3.04745 5.42395 3.11489 6.0758 2.72527 6.12824Z" fill="#232B37"/>
<path d="M2.65784 8.62325C1.53397 8.66071 1.45904 10.2941 2.48551 10.4739C3.9016 10.7212 3.97652 8.57829 2.65784 8.62325ZM2.72527 9.86701C2.33566 9.91945 2.24575 9.35002 2.59041 9.2676C3.04745 9.16271 3.11489 9.81456 2.72527 9.86701Z" fill="#232B37"/>
<path d="M2.65784 12.3695C1.53397 12.407 1.45904 14.0403 2.48551 14.2202C3.9016 14.4674 3.97652 12.3245 2.65784 12.3695ZM2.72527 13.6133C2.33566 13.6657 2.24575 13.0963 2.59041 13.0139C3.04745 12.909 3.11489 13.5608 2.72527 13.6133Z" fill="#232B37"/>
</svg>
