<svg width="16" height="14" viewBox="0 0 16 14" fill="none" xmlns="http://www.w3.org/2000/svg">
<path d="M12.375 0.125H3.625C2.7965 0.125992 2.00222 0.455551 1.41639 1.04139C0.830551 1.62722 0.500992 2.4215 0.5 3.25L0.5 10.75C0.500992 11.5785 0.830551 12.3728 1.41639 12.9586C2.00222 13.5444 2.7965 13.874 3.625 13.875H12.375C13.2035 13.874 13.9978 13.5444 14.5836 12.9586C15.1694 12.3728 15.499 11.5785 15.5 10.75V3.25C15.499 2.4215 15.1694 1.62722 14.5836 1.04139C13.9978 0.455551 13.2035 0.125992 12.375 0.125ZM3.625 1.375H12.375C12.8723 1.375 13.3492 1.57254 13.7008 1.92417C14.0525 2.27581 14.25 2.75272 14.25 3.25V3.875H1.75V3.25C1.75 2.75272 1.94754 2.27581 2.29917 1.92417C2.65081 1.57254 3.12772 1.375 3.625 1.375ZM12.375 12.625H3.625C3.12772 12.625 2.65081 12.4275 2.29917 12.0758C1.94754 11.7242 1.75 11.2473 1.75 10.75V5.125H14.25V10.75C14.25 11.2473 14.0525 11.7242 13.7008 12.0758C13.3492 12.4275 12.8723 12.625 12.375 12.625ZM12.375 7.625C12.375 7.79076 12.3092 7.94973 12.1919 8.06694C12.0747 8.18415 11.9158 8.25 11.75 8.25H4.25C4.08424 8.25 3.92527 8.18415 3.80806 8.06694C3.69085 7.94973 3.625 7.79076 3.625 7.625C3.625 7.45924 3.69085 7.30027 3.80806 7.18306C3.92527 7.06585 4.08424 7 4.25 7H11.75C11.9158 7 12.0747 7.06585 12.1919 7.18306C12.3092 7.30027 12.375 7.45924 12.375 7.625ZM9.875 10.125C9.875 10.2908 9.80915 10.4497 9.69194 10.5669C9.57473 10.6842 9.41576 10.75 9.25 10.75H4.25C4.08424 10.75 3.92527 10.6842 3.80806 10.5669C3.69085 10.4497 3.625 10.2908 3.625 10.125C3.625 9.95924 3.69085 9.80027 3.80806 9.68306C3.92527 9.56585 4.08424 9.5 4.25 9.5H9.25C9.41576 9.5 9.57473 9.56585 9.69194 9.68306C9.80915 9.80027 9.875 9.95924 9.875 10.125ZM2.375 2.625C2.375 2.50139 2.41166 2.38055 2.48033 2.27777C2.54901 2.17499 2.64662 2.09488 2.76082 2.04758C2.87503 2.00027 3.00069 1.98789 3.12193 2.01201C3.24317 2.03612 3.35453 2.09565 3.44194 2.18306C3.52935 2.27047 3.58888 2.38183 3.61299 2.50307C3.63711 2.62431 3.62473 2.74997 3.57742 2.86418C3.53012 2.97838 3.45001 3.07599 3.34723 3.14467C3.24445 3.21334 3.12361 3.25 3 3.25C2.83424 3.25 2.67527 3.18415 2.55806 3.06694C2.44085 2.94973 2.375 2.79076 2.375 2.625ZM4.25 2.625C4.25 2.50139 4.28666 2.38055 4.35533 2.27777C4.42401 2.17499 4.52162 2.09488 4.63582 2.04758C4.75003 2.00027 4.87569 1.98789 4.99693 2.01201C5.11817 2.03612 5.22953 2.09565 5.31694 2.18306C5.40435 2.27047 5.46388 2.38183 5.48799 2.50307C5.51211 2.62431 5.49973 2.74997 5.45243 2.86418C5.40512 2.97838 5.32501 3.07599 5.22223 3.14467C5.11945 3.21334 4.99861 3.25 4.875 3.25C4.70924 3.25 4.55027 3.18415 4.43306 3.06694C4.31585 2.94973 4.25 2.79076 4.25 2.625ZM6.125 2.625C6.125 2.50139 6.16166 2.38055 6.23033 2.27777C6.29901 2.17499 6.39662 2.09488 6.51082 2.04758C6.62503 2.00027 6.75069 1.98789 6.87193 2.01201C6.99317 2.03612 7.10453 2.09565 7.19194 2.18306C7.27935 2.27047 7.33888 2.38183 7.36299 2.50307C7.38711 2.62431 7.37473 2.74997 7.32743 2.86418C7.28012 2.97838 7.20001 3.07599 7.09723 3.14467C6.99445 3.21334 6.87361 3.25 6.75 3.25C6.58424 3.25 6.42527 3.18415 6.30806 3.06694C6.19085 2.94973 6.125 2.79076 6.125 2.625Z" fill="#6C757D"/>
</svg>
