<svg width="118" height="25" viewBox="0 0 118 25" fill="none" xmlns="http://www.w3.org/2000/svg">
<path d="M40.0346 8.70196C40.2629 8.81514 40.3946 8.99362 40.4297 9.23738C40.4736 9.48115 40.4122 9.70316 40.2453 9.9034C40.1312 10.0601 39.9819 10.1472 39.7975 10.1646C39.6218 10.182 39.4418 10.1472 39.2574 10.0601C39.0466 9.96434 38.8227 9.89034 38.5856 9.8381C38.3573 9.78586 38.1158 9.75975 37.8611 9.75975C37.3869 9.75975 36.961 9.83375 36.5834 9.98175C36.2146 10.1298 35.8985 10.343 35.635 10.6216C35.3716 10.8915 35.1696 11.2136 35.0291 11.588C34.8974 11.9624 34.8315 12.3759 34.8315 12.8286C34.8315 13.3597 34.9062 13.8211 35.0554 14.2129C35.2135 14.6046 35.4287 14.9311 35.7009 15.1923C35.9731 15.4535 36.2936 15.6494 36.6625 15.78C37.0313 15.9018 37.4308 15.9628 37.8611 15.9628C38.0982 15.9628 38.3353 15.941 38.5724 15.8975C38.8095 15.854 39.0379 15.7756 39.2574 15.6624C39.4418 15.5754 39.6218 15.5449 39.7975 15.571C39.9819 15.5971 40.1356 15.6885 40.2585 15.8453C40.4341 16.0629 40.4956 16.2893 40.4429 16.5243C40.399 16.7507 40.2673 16.9161 40.0477 17.0206C39.8194 17.1337 39.5823 17.2295 39.3364 17.3079C39.0993 17.3775 38.8578 17.4297 38.612 17.4646C38.3661 17.5081 38.1158 17.5299 37.8611 17.5299C37.2289 17.5299 36.6273 17.4297 36.0565 17.2295C35.4945 17.0293 34.9896 16.7333 34.5417 16.3415C34.1026 15.9497 33.7558 15.4622 33.5011 14.8789C33.2464 14.2869 33.1191 13.6035 33.1191 12.8286C33.1191 12.1583 33.2333 11.5401 33.4616 10.9742C33.6987 10.4083 34.028 9.92081 34.4495 9.51162C34.8798 9.09374 35.3848 8.77161 35.9643 8.54526C36.5439 8.31019 37.1762 8.19266 37.8611 8.19266C38.2475 8.19266 38.6251 8.23619 38.994 8.32325C39.3628 8.41031 39.7097 8.53655 40.0346 8.70196Z" fill="white"/>
<path d="M43.4192 16.6027C43.4192 16.829 43.3402 17.0206 43.1821 17.1773C43.0328 17.3253 42.844 17.3993 42.6157 17.3993C42.3962 17.3993 42.2118 17.3253 42.0625 17.1773C41.9132 17.0206 41.8386 16.829 41.8386 16.6027V8.5322C41.8386 8.30584 41.9132 8.11866 42.0625 7.97066C42.2205 7.81395 42.4137 7.7356 42.6421 7.7356C42.8704 7.7356 43.0548 7.81395 43.1953 7.97066C43.3446 8.11866 43.4192 8.30584 43.4192 8.5322V16.6027Z" fill="white"/>
<path d="M51.965 13.9125C51.965 14.6264 51.8025 15.2576 51.4776 15.8061C51.1614 16.3458 50.7311 16.7681 50.1867 17.0728C49.651 17.3775 49.0495 17.5299 48.3821 17.5299C47.7147 17.5299 47.1088 17.3775 46.5643 17.0728C46.0286 16.7681 45.5984 16.3458 45.2734 15.8061C44.9573 15.2576 44.7992 14.6264 44.7992 13.9125C44.7992 13.1986 44.9573 12.5718 45.2734 12.032C45.5984 11.4835 46.0286 11.0569 46.5643 10.7522C47.1088 10.4388 47.7147 10.2821 48.3821 10.2821C49.0495 10.2821 49.651 10.4388 50.1867 10.7522C50.7311 11.0569 51.1614 11.4835 51.4776 12.032C51.8025 12.5718 51.965 13.1986 51.965 13.9125ZM50.3843 13.9125C50.3843 13.4685 50.2921 13.0854 50.1077 12.7633C49.932 12.4325 49.6905 12.1757 49.3832 11.9928C49.0846 11.81 48.7509 11.7186 48.3821 11.7186C48.0133 11.7186 47.6752 11.81 47.3678 11.9928C47.0693 12.1757 46.8278 12.4325 46.6434 12.7633C46.4677 13.0854 46.3799 13.4685 46.3799 13.9125C46.3799 14.3478 46.4677 14.7309 46.6434 15.0617C46.8278 15.3838 47.0693 15.6363 47.3678 15.8191C47.6752 16.002 48.0133 16.0934 48.3821 16.0934C48.7509 16.0934 49.0846 16.002 49.3832 15.8191C49.6905 15.6363 49.932 15.3838 50.1077 15.0617C50.2921 14.7309 50.3843 14.3478 50.3843 13.9125Z" fill="white"/>
<path d="M58.5778 10.4127C58.8061 10.4127 58.9949 10.4911 59.1442 10.6478C59.2934 10.7958 59.3681 10.9829 59.3681 11.2093V14.5263C59.3681 15.4491 59.109 16.1804 58.5909 16.7202C58.0728 17.26 57.3264 17.5299 56.3516 17.5299C55.3769 17.5299 54.6305 17.26 54.1123 16.7202C53.603 16.1804 53.3484 15.4491 53.3484 14.5263V11.2093C53.3484 10.9829 53.423 10.7958 53.5723 10.6478C53.7216 10.4911 53.9104 10.4127 54.1387 10.4127C54.367 10.4127 54.5558 10.4911 54.7051 10.6478C54.8544 10.7958 54.929 10.9829 54.929 11.2093V14.5263C54.929 15.0574 55.0476 15.4535 55.2847 15.7147C55.5218 15.9671 55.8774 16.0934 56.3516 16.0934C56.8346 16.0934 57.1947 15.9671 57.4318 15.7147C57.6689 15.4535 57.7874 15.0574 57.7874 14.5263V11.2093C57.7874 10.9829 57.8621 10.7958 58.0113 10.6478C58.1606 10.4911 58.3494 10.4127 58.5778 10.4127Z" fill="white"/>
<path d="M66.8488 7.7356C67.0771 7.7356 67.2659 7.8096 67.4152 7.9576C67.5645 8.1056 67.6392 8.29713 67.6392 8.5322V16.6027C67.6392 16.829 67.5645 17.0206 67.4152 17.1773C67.2659 17.3253 67.0771 17.3993 66.8488 17.3993C66.6205 17.3993 66.4317 17.3253 66.2824 17.1773C66.1331 17.0206 66.0585 16.829 66.0585 16.6027V15.9628L66.3483 16.0803C66.3483 16.1935 66.2868 16.3328 66.1639 16.4982C66.0409 16.6549 65.8741 16.8116 65.6633 16.9683C65.4526 17.125 65.2023 17.26 64.9125 17.3732C64.6315 17.4776 64.3241 17.5299 63.9904 17.5299C63.3845 17.5299 62.8357 17.3775 62.3439 17.0728C61.8521 16.7594 61.4614 16.3328 61.1716 15.793C60.8906 15.2445 60.75 14.6177 60.75 13.9125C60.75 13.1986 60.8906 12.5718 61.1716 12.032C61.4614 11.4835 61.8477 11.0569 62.3307 10.7522C62.8137 10.4388 63.3494 10.2821 63.9377 10.2821C64.3153 10.2821 64.6622 10.3387 64.9784 10.4519C65.2945 10.5651 65.5667 10.7087 65.795 10.8828C66.0321 11.0569 66.2122 11.2354 66.3351 11.4182C66.4668 11.5924 66.5327 11.7404 66.5327 11.8622L66.0585 12.032V8.5322C66.0585 8.30584 66.1331 8.11866 66.2824 7.97066C66.4317 7.81395 66.6205 7.7356 66.8488 7.7356ZM64.188 16.0934C64.5744 16.0934 64.9125 15.9976 65.2023 15.8061C65.4921 15.6145 65.716 15.3534 65.8741 15.0225C66.0409 14.6917 66.1243 14.3217 66.1243 13.9125C66.1243 13.4946 66.0409 13.1203 65.8741 12.7894C65.716 12.4586 65.4921 12.1974 65.2023 12.0059C64.9125 11.8144 64.5744 11.7186 64.188 11.7186C63.8104 11.7186 63.4767 11.8144 63.1869 12.0059C62.8971 12.1974 62.6688 12.4586 62.502 12.7894C62.3439 13.1203 62.2649 13.4946 62.2649 13.9125C62.2649 14.3217 62.3439 14.6917 62.502 15.0225C62.6688 15.3534 62.8971 15.6145 63.1869 15.8061C63.4767 15.9976 63.8104 16.0934 64.188 16.0934Z" fill="white"/>
<path d="M72.9994 10.2821C73.6141 10.2821 74.1629 10.4388 74.6459 10.7522C75.1376 11.0569 75.524 11.4792 75.805 12.019C76.0948 12.5587 76.2397 13.1856 76.2397 13.8995C76.2397 14.6134 76.0948 15.2445 75.805 15.793C75.524 16.3328 75.142 16.7594 74.6591 17.0728C74.1849 17.3775 73.6492 17.5299 73.052 17.5299C72.7008 17.5299 72.3715 17.4733 72.0641 17.3601C71.7568 17.2469 71.4845 17.1033 71.2474 16.9292C71.0191 16.755 70.8391 16.5809 70.7074 16.4068C70.5844 16.224 70.523 16.0716 70.523 15.9497L70.9313 15.78V19.2145C70.9313 19.4408 70.8567 19.628 70.7074 19.776C70.5581 19.9327 70.3693 20.0111 70.141 20.0111C69.9126 20.0111 69.7238 19.9371 69.5746 19.7891C69.4253 19.6411 69.3506 19.4495 69.3506 19.2145V11.2093C69.3506 10.9829 69.4253 10.7958 69.5746 10.6478C69.7238 10.4911 69.9126 10.4127 70.141 10.4127C70.3693 10.4127 70.5581 10.4911 70.7074 10.6478C70.8567 10.7958 70.9313 10.9829 70.9313 11.2093V11.8492L70.7074 11.7317C70.7074 11.6185 70.7688 11.4835 70.8918 11.3268C71.0147 11.1614 71.1816 11.0004 71.3923 10.8436C71.6031 10.6782 71.8446 10.5433 72.1168 10.4388C72.3978 10.3343 72.692 10.2821 72.9994 10.2821ZM72.8018 11.7186C72.4154 11.7186 72.0773 11.8144 71.7875 12.0059C71.4977 12.1974 71.2694 12.4586 71.1025 12.7894C70.9445 13.1116 70.8654 13.4816 70.8654 13.8995C70.8654 14.3086 70.9445 14.683 71.1025 15.0225C71.2694 15.3534 71.4977 15.6145 71.7875 15.8061C72.0773 15.9976 72.4154 16.0934 72.8018 16.0934C73.1882 16.0934 73.5219 15.9976 73.8029 15.8061C74.0926 15.6145 74.3166 15.3534 74.4746 15.0225C74.6415 14.683 74.7249 14.3086 74.7249 13.8995C74.7249 13.4816 74.6415 13.1116 74.4746 12.7894C74.3166 12.4586 74.0926 12.1974 73.8029 12.0059C73.5219 11.8144 73.1882 11.7186 72.8018 11.7186Z" fill="white"/>
<path d="M80.9413 17.5299C80.1949 17.5299 79.5451 17.3775 78.9918 17.0728C78.4474 16.7594 78.0258 16.3371 77.7273 15.8061C77.4375 15.275 77.2926 14.6743 77.2926 14.0039C77.2926 13.2204 77.4507 12.5544 77.7668 12.0059C78.0917 11.4487 78.5132 11.0221 79.0313 10.7261C79.5494 10.4301 80.0983 10.2821 80.6779 10.2821C81.1257 10.2821 81.5472 10.3735 81.9424 10.5563C82.3464 10.7392 82.702 10.9916 83.0094 11.3138C83.3167 11.6272 83.5582 11.9928 83.7338 12.4107C83.9182 12.8286 84.0105 13.2726 84.0105 13.7427C84.0017 13.9517 83.9182 14.1215 83.7602 14.2521C83.6021 14.3826 83.4177 14.4479 83.2069 14.4479H78.1751L77.78 13.142H82.6142L82.3244 13.4032V13.0506C82.3068 12.7981 82.2146 12.5718 82.0478 12.3716C81.8897 12.1713 81.6877 12.0146 81.4419 11.9014C81.2048 11.7795 80.9501 11.7186 80.6779 11.7186C80.4144 11.7186 80.1685 11.7534 79.9402 11.8231C79.7119 11.8927 79.5143 12.0103 79.3475 12.1757C79.1806 12.3411 79.0489 12.5631 78.9523 12.8417C78.8557 13.1203 78.8074 13.4729 78.8074 13.8995C78.8074 14.3696 78.904 14.7701 79.0972 15.1009C79.2992 15.423 79.5538 15.6711 79.8612 15.8453C80.1773 16.0107 80.511 16.0934 80.8623 16.0934C81.1872 16.0934 81.4463 16.0673 81.6394 16.015C81.8326 15.9628 81.9863 15.9018 82.1005 15.8322C82.2234 15.7538 82.3332 15.6885 82.4298 15.6363C82.5878 15.558 82.7371 15.5188 82.8776 15.5188C83.0708 15.5188 83.2289 15.5841 83.3518 15.7147C83.4836 15.8453 83.5494 15.9976 83.5494 16.1717C83.5494 16.4068 83.4265 16.6201 83.1806 16.8116C82.9523 17.0032 82.6318 17.1729 82.219 17.3209C81.8063 17.4602 81.3804 17.5299 80.9413 17.5299Z" fill="white"/>
<path d="M91.1609 7.7356C91.3893 7.7356 91.5781 7.8096 91.7274 7.9576C91.8766 8.1056 91.9513 8.29713 91.9513 8.5322V16.6027C91.9513 16.829 91.8766 17.0206 91.7274 17.1773C91.5781 17.3253 91.3893 17.3993 91.1609 17.3993C90.9326 17.3993 90.7438 17.3253 90.5945 17.1773C90.4453 17.0206 90.3706 16.829 90.3706 16.6027V15.9628L90.6604 16.0803C90.6604 16.1935 90.5989 16.3328 90.476 16.4982C90.3531 16.6549 90.1862 16.8116 89.9754 16.9683C89.7647 17.125 89.5144 17.26 89.2246 17.3732C88.9436 17.4776 88.6363 17.5299 88.3026 17.5299C87.6966 17.5299 87.1478 17.3775 86.656 17.0728C86.1643 16.7594 85.7735 16.3328 85.4837 15.793C85.2027 15.2445 85.0622 14.6177 85.0622 13.9125C85.0622 13.1986 85.2027 12.5718 85.4837 12.032C85.7735 11.4835 86.1599 11.0569 86.6429 10.7522C87.1258 10.4388 87.6615 10.2821 88.2499 10.2821C88.6275 10.2821 88.9743 10.3387 89.2905 10.4519C89.6066 10.5651 89.8788 10.7087 90.1072 10.8828C90.3443 11.0569 90.5243 11.2354 90.6472 11.4182C90.779 11.5924 90.8448 11.7404 90.8448 11.8622L90.3706 12.032V8.5322C90.3706 8.30584 90.4453 8.11866 90.5945 7.97066C90.7438 7.81395 90.9326 7.7356 91.1609 7.7356ZM88.5001 16.0934C88.8865 16.0934 89.2246 15.9976 89.5144 15.8061C89.8042 15.6145 90.0281 15.3534 90.1862 15.0225C90.353 14.6917 90.4365 14.3217 90.4365 13.9125C90.4365 13.4946 90.353 13.1203 90.1862 12.7894C90.0281 12.4586 89.8042 12.1974 89.5144 12.0059C89.2246 11.8144 88.8865 11.7186 88.5001 11.7186C88.1225 11.7186 87.7888 11.8144 87.4991 12.0059C87.2093 12.1974 86.9809 12.4586 86.8141 12.7894C86.656 13.1203 86.577 13.4946 86.577 13.9125C86.577 14.3217 86.656 14.6917 86.8141 15.0225C86.9809 15.3534 87.2093 15.6145 87.4991 15.8061C87.7888 15.9976 88.1225 16.0934 88.5001 16.0934Z" fill="white"/>
<path d="M95.1512 16.6027C95.1512 16.829 95.0766 17.0206 94.9273 17.1773C94.778 17.3253 94.5892 17.3993 94.3609 17.3993C94.1326 17.3993 93.9438 17.3253 93.7945 17.1773C93.6452 17.0206 93.5705 16.829 93.5705 16.6027V11.2093C93.5705 10.9829 93.6452 10.7958 93.7945 10.6478C93.9438 10.4911 94.1326 10.4127 94.3609 10.4127C94.5892 10.4127 94.778 10.4911 94.9273 10.6478C95.0766 10.7958 95.1512 10.9829 95.1512 11.2093V16.6027ZM94.3477 9.56386C94.0491 9.56386 93.8384 9.51598 93.7154 9.42021C93.5925 9.32444 93.531 9.15468 93.531 8.91091V8.66279C93.531 8.41031 93.5969 8.24055 93.7286 8.15349C93.8691 8.05772 94.0799 8.00984 94.3609 8.00984C94.6682 8.00984 94.8834 8.05772 95.0063 8.15349C95.1293 8.24925 95.1907 8.41902 95.1907 8.66279V8.91091C95.1907 9.16338 95.1249 9.3375 94.9932 9.43327C94.8614 9.52033 94.6463 9.56386 94.3477 9.56386Z" fill="white"/>
<path d="M102.545 10.2821C102.774 10.2821 102.962 10.3561 103.112 10.5041C103.261 10.6521 103.336 10.8436 103.336 11.0787V16.6027C103.336 16.829 103.261 17.0206 103.112 17.1773C102.962 17.3253 102.774 17.3993 102.545 17.3993C102.317 17.3993 102.128 17.3253 101.979 17.1773C101.83 17.0206 101.755 16.829 101.755 16.6027V15.9628L102.045 16.0803C102.045 16.1935 101.983 16.3328 101.86 16.4982C101.737 16.6549 101.57 16.8116 101.36 16.9683C101.149 17.125 100.899 17.26 100.609 17.3732C100.328 17.4776 100.021 17.5299 99.6868 17.5299C99.0809 17.5299 98.532 17.3775 98.0403 17.0728C97.5485 16.7594 97.1577 16.3328 96.8679 15.793C96.5869 15.2445 96.4464 14.6177 96.4464 13.9125C96.4464 13.1986 96.5869 12.5718 96.8679 12.032C97.1577 11.4835 97.5441 11.0569 98.0271 10.7522C98.5101 10.4388 99.0458 10.2821 99.6341 10.2821C100.012 10.2821 100.359 10.3387 100.675 10.4519C100.991 10.5651 101.263 10.7087 101.491 10.8828C101.729 11.0569 101.909 11.2354 102.031 11.4182C102.163 11.5924 102.229 11.7404 102.229 11.8622L101.755 12.032V11.0787C101.755 10.8524 101.83 10.6652 101.979 10.5172C102.128 10.3605 102.317 10.2821 102.545 10.2821ZM99.8844 16.0934C100.271 16.0934 100.609 15.9976 100.899 15.8061C101.188 15.6145 101.412 15.3534 101.57 15.0225C101.737 14.6917 101.821 14.3217 101.821 13.9125C101.821 13.4946 101.737 13.1203 101.57 12.7894C101.412 12.4586 101.188 12.1974 100.899 12.0059C100.609 11.8144 100.271 11.7186 99.8844 11.7186C99.5068 11.7186 99.1731 11.8144 98.8833 12.0059C98.5935 12.1974 98.3652 12.4586 98.1983 12.7894C98.0403 13.1203 97.9612 13.4946 97.9612 13.9125C97.9612 14.3217 98.0403 14.6917 98.1983 15.0225C98.3652 15.3534 98.5935 15.6145 98.8833 15.8061C99.1731 15.9976 99.5068 16.0934 99.8844 16.0934Z" fill="white"/>
<path d="M105.745 17.3862C105.49 17.3862 105.293 17.3209 105.152 17.1903C105.021 17.051 104.955 16.8552 104.955 16.6027V16.3807C104.955 16.1282 105.021 15.9367 105.152 15.8061C105.293 15.6668 105.49 15.5971 105.745 15.5971H105.916C106.171 15.5971 106.364 15.6668 106.496 15.8061C106.636 15.9367 106.707 16.1282 106.707 16.3807V16.6027C106.707 16.8552 106.636 17.051 106.496 17.1903C106.364 17.3209 106.171 17.3862 105.916 17.3862H105.745Z" fill="white"/>
<path d="M109.816 16.6027C109.816 16.829 109.741 17.0206 109.592 17.1773C109.442 17.3253 109.254 17.3993 109.025 17.3993C108.797 17.3993 108.608 17.3253 108.459 17.1773C108.31 17.0206 108.235 16.829 108.235 16.6027V11.2093C108.235 10.9829 108.31 10.7958 108.459 10.6478C108.608 10.4911 108.797 10.4127 109.025 10.4127C109.254 10.4127 109.442 10.4911 109.592 10.6478C109.741 10.7958 109.816 10.9829 109.816 11.2093V16.6027ZM109.012 9.56386C108.714 9.56386 108.503 9.51598 108.38 9.42021C108.257 9.32444 108.195 9.15468 108.195 8.91091V8.66279C108.195 8.41031 108.261 8.24055 108.393 8.15349C108.534 8.05772 108.744 8.00984 109.025 8.00984C109.333 8.00984 109.548 8.05772 109.671 8.15349C109.794 8.24925 109.855 8.41902 109.855 8.66279V8.91091C109.855 9.16338 109.789 9.3375 109.658 9.43327C109.526 9.52033 109.311 9.56386 109.012 9.56386Z" fill="white"/>
<path d="M117.21 7.7356C117.438 7.7356 117.627 7.8096 117.776 7.9576C117.925 8.1056 118 8.29713 118 8.5322V16.6027C118 16.829 117.925 17.0206 117.776 17.1773C117.627 17.3253 117.438 17.3993 117.21 17.3993C116.981 17.3993 116.793 17.3253 116.643 17.1773C116.494 17.0206 116.419 16.829 116.419 16.6027V15.9628L116.709 16.0803C116.709 16.1935 116.648 16.3328 116.525 16.4982C116.402 16.6549 116.235 16.8116 116.024 16.9683C115.813 17.125 115.563 17.26 115.273 17.3732C114.992 17.4776 114.685 17.5299 114.351 17.5299C113.745 17.5299 113.197 17.3775 112.705 17.0728C112.213 16.7594 111.822 16.3328 111.532 15.793C111.251 15.2445 111.111 14.6177 111.111 13.9125C111.111 13.1986 111.251 12.5718 111.532 12.032C111.822 11.4835 112.209 11.0569 112.692 10.7522C113.175 10.4388 113.71 10.2821 114.299 10.2821C114.676 10.2821 115.023 10.3387 115.339 10.4519C115.655 10.5651 115.928 10.7087 116.156 10.8828C116.393 11.0569 116.573 11.2354 116.696 11.4182C116.828 11.5924 116.894 11.7404 116.894 11.8622L116.419 12.032V8.5322C116.419 8.30584 116.494 8.11866 116.643 7.97066C116.793 7.81395 116.981 7.7356 117.21 7.7356ZM114.549 16.0934C114.935 16.0934 115.273 15.9976 115.563 15.8061C115.853 15.6145 116.077 15.3534 116.235 15.0225C116.402 14.6917 116.485 14.3217 116.485 13.9125C116.485 13.4946 116.402 13.1203 116.235 12.7894C116.077 12.4586 115.853 12.1974 115.563 12.0059C115.273 11.8144 114.935 11.7186 114.549 11.7186C114.171 11.7186 113.838 11.8144 113.548 12.0059C113.258 12.1974 113.03 12.4586 112.863 12.7894C112.705 13.1203 112.626 13.4946 112.626 13.9125C112.626 14.3217 112.705 14.6917 112.863 15.0225C113.03 15.3534 113.258 15.6145 113.548 15.8061C113.838 15.9976 114.171 16.0934 114.549 16.0934Z" fill="white"/>
<path d="M13.1769 14.7073C11.9441 14.7073 10.9455 13.794 10.9455 12.6666C10.9455 11.0305 9.49156 9.70076 7.70254 9.70076C3.45443 9.70373 0 6.54155 0 2.65649C0 1.52905 0.998598 0.615795 2.23139 0.615795C3.46419 0.615795 4.46279 1.52905 4.46279 2.65649C4.46279 4.29262 5.92002 5.62234 7.70579 5.62234C11.9539 5.62234 15.4083 8.78155 15.4083 12.6666C15.4083 13.794 14.4097 14.7073 13.1769 14.7073Z" fill="white"/>
<path d="M29.3821 24.6192C28.1493 24.6192 27.1507 23.7059 27.1507 22.5785C27.1507 20.9424 25.6967 19.6127 23.9077 19.6127C19.6596 19.6127 16.2019 16.4534 16.2019 12.5684C16.2019 11.441 17.2005 10.5277 18.4333 10.5277C19.6661 10.5277 20.6647 11.441 20.6647 12.5684C20.6647 14.2045 22.1219 15.5342 23.9077 15.5342C28.1558 15.5342 31.6103 18.6935 31.6103 22.5815C31.6103 23.7089 30.6117 24.6222 29.3789 24.6222L29.3821 24.6192Z" fill="white"/>
<path d="M17.5682 25C16.3354 25 15.3368 24.0867 15.3368 22.9593C15.3368 21.3232 13.8796 19.9935 12.0938 19.9935C7.84573 19.9935 4.3913 16.8342 4.3913 12.9492C4.3913 11.8217 5.3899 10.9085 6.62269 10.9085C7.85549 10.9085 8.85408 11.8217 8.85408 12.9492C8.85408 14.5853 10.3081 15.915 12.0971 15.915C16.3452 15.915 19.8029 19.0742 19.8029 22.9593C19.8029 24.0867 18.8043 25 17.5715 25H17.5682Z" fill="white"/>
<path d="M24.5648 12.2234C23.332 12.2234 22.3334 11.3101 22.3334 10.1827C22.3334 8.54655 20.8762 7.21682 19.0904 7.21682C17.8576 7.21682 16.859 6.30357 16.859 5.17613C16.859 4.04869 17.8576 3.13543 19.0904 3.13543C23.3385 3.13543 26.793 6.29464 26.793 10.1797C26.793 11.3071 25.7944 12.2204 24.5616 12.2204L24.5648 12.2234Z" fill="white"/>
<path d="M11.0854 2.38279C11.0854 1.06794 12.2532 0 13.6909 0C15.1286 0 16.2964 1.06794 16.2964 2.38279C16.2964 3.69764 15.1286 4.76559 13.6909 4.76559C12.2532 4.76559 11.0854 3.69764 11.0854 2.38279Z" fill="white"/>
</svg>
