<svg width="114" height="24" viewBox="0 0 114 24" fill="none" xmlns="http://www.w3.org/2000/svg">
<path d="M36.4717 8.88813C36.6797 8.99213 36.7997 9.15613 36.8317 9.38013C36.8717 9.60413 36.8157 9.80813 36.6637 9.99213C36.5597 10.1361 36.4237 10.2161 36.2557 10.2321C36.0957 10.2481 35.9317 10.2161 35.7637 10.1361C35.5717 10.0481 35.3677 9.98013 35.1517 9.93213C34.9437 9.88413 34.7237 9.86013 34.4917 9.86013C34.0597 9.86013 33.6717 9.92813 33.3277 10.0641C32.9917 10.2001 32.7037 10.3961 32.4637 10.6521C32.2237 10.9001 32.0397 11.1961 31.9117 11.5401C31.7917 11.8841 31.7317 12.2641 31.7317 12.6801C31.7317 13.1681 31.7997 13.5921 31.9357 13.9521C32.0797 14.3121 32.2757 14.6121 32.5237 14.8521C32.7717 15.0921 33.0637 15.2721 33.3997 15.3921C33.7357 15.5041 34.0997 15.5601 34.4917 15.5601C34.7077 15.5601 34.9237 15.5401 35.1397 15.5001C35.3557 15.4601 35.5637 15.3881 35.7637 15.2841C35.9317 15.2041 36.0957 15.1761 36.2557 15.2001C36.4237 15.2241 36.5637 15.3081 36.6757 15.4521C36.8357 15.6521 36.8917 15.8601 36.8437 16.0761C36.8037 16.2841 36.6837 16.4361 36.4837 16.5321C36.2757 16.6361 36.0597 16.7241 35.8357 16.7961C35.6197 16.8601 35.3997 16.9081 35.1757 16.9401C34.9517 16.9801 34.7237 17.0001 34.4917 17.0001C33.9157 17.0001 33.3677 16.9081 32.8477 16.7241C32.3357 16.5401 31.8757 16.2681 31.4677 15.9081C31.0677 15.5481 30.7517 15.1001 30.5197 14.5641C30.2877 14.0201 30.1717 13.3921 30.1717 12.6801C30.1717 12.0641 30.2757 11.4961 30.4837 10.9761C30.6997 10.4561 30.9997 10.0081 31.3837 9.63213C31.7757 9.24813 32.2357 8.95213 32.7637 8.74413C33.2917 8.52813 33.8677 8.42013 34.4917 8.42013C34.8437 8.42013 35.1877 8.46013 35.5237 8.54013C35.8597 8.62013 36.1757 8.73613 36.4717 8.88813ZM39.5551 16.1481C39.5551 16.3561 39.4831 16.5321 39.3391 16.6761C39.2031 16.8121 39.0311 16.8801 38.8231 16.8801C38.6231 16.8801 38.4551 16.8121 38.3191 16.6761C38.1831 16.5321 38.1151 16.3561 38.1151 16.1481V8.73213C38.1151 8.52413 38.1831 8.35213 38.3191 8.21613C38.4631 8.07213 38.6391 8.00013 38.8471 8.00013C39.0551 8.00013 39.2231 8.07213 39.3511 8.21613C39.4871 8.35213 39.5551 8.52413 39.5551 8.73213V16.1481ZM47.3403 13.6761C47.3403 14.3321 47.1923 14.9121 46.8963 15.4161C46.6083 15.9121 46.2163 16.3001 45.7203 16.5801C45.2323 16.8601 44.6843 17.0001 44.0763 17.0001C43.4683 17.0001 42.9163 16.8601 42.4203 16.5801C41.9323 16.3001 41.5403 15.9121 41.2443 15.4161C40.9563 14.9121 40.8123 14.3321 40.8123 13.6761C40.8123 13.0201 40.9563 12.4441 41.2443 11.9481C41.5403 11.4441 41.9323 11.0521 42.4203 10.7721C42.9163 10.4841 43.4683 10.3401 44.0763 10.3401C44.6843 10.3401 45.2323 10.4841 45.7203 10.7721C46.2163 11.0521 46.6083 11.4441 46.8963 11.9481C47.1923 12.4441 47.3403 13.0201 47.3403 13.6761ZM45.9003 13.6761C45.9003 13.2681 45.8163 12.9161 45.6483 12.6201C45.4883 12.3161 45.2683 12.0801 44.9883 11.9121C44.7163 11.7441 44.4123 11.6601 44.0763 11.6601C43.7403 11.6601 43.4323 11.7441 43.1523 11.9121C42.8803 12.0801 42.6603 12.3161 42.4923 12.6201C42.3323 12.9161 42.2523 13.2681 42.2523 13.6761C42.2523 14.0761 42.3323 14.4281 42.4923 14.7321C42.6603 15.0281 42.8803 15.2601 43.1523 15.4281C43.4323 15.5961 43.7403 15.6801 44.0763 15.6801C44.4123 15.6801 44.7163 15.5961 44.9883 15.4281C45.2683 15.2601 45.4883 15.0281 45.6483 14.7321C45.8163 14.4281 45.9003 14.0761 45.9003 13.6761ZM53.3646 10.4601C53.5726 10.4601 53.7446 10.5321 53.8806 10.6761C54.0166 10.8121 54.0846 10.9841 54.0846 11.1921V14.2401C54.0846 15.0881 53.8486 15.7601 53.3766 16.2561C52.9046 16.7521 52.2246 17.0001 51.3366 17.0001C50.4486 17.0001 49.7686 16.7521 49.2966 16.2561C48.8326 15.7601 48.6006 15.0881 48.6006 14.2401V11.1921C48.6006 10.9841 48.6686 10.8121 48.8046 10.6761C48.9406 10.5321 49.1126 10.4601 49.3206 10.4601C49.5286 10.4601 49.7006 10.5321 49.8366 10.6761C49.9726 10.8121 50.0406 10.9841 50.0406 11.1921V14.2401C50.0406 14.7281 50.1486 15.0921 50.3646 15.3321C50.5806 15.5641 50.9046 15.6801 51.3366 15.6801C51.7766 15.6801 52.1046 15.5641 52.3206 15.3321C52.5366 15.0921 52.6446 14.7281 52.6446 14.2401V11.1921C52.6446 10.9841 52.7126 10.8121 52.8486 10.6761C52.9846 10.5321 53.1566 10.4601 53.3646 10.4601ZM60.8995 8.00013C61.1075 8.00013 61.2795 8.06813 61.4155 8.20413C61.5515 8.34013 61.6195 8.51613 61.6195 8.73213V16.1481C61.6195 16.3561 61.5515 16.5321 61.4155 16.6761C61.2795 16.8121 61.1075 16.8801 60.8995 16.8801C60.6915 16.8801 60.5195 16.8121 60.3835 16.6761C60.2475 16.5321 60.1795 16.3561 60.1795 16.1481V15.5601L60.4435 15.6681C60.4435 15.7721 60.3875 15.9001 60.2755 16.0521C60.1635 16.1961 60.0115 16.3401 59.8195 16.4841C59.6275 16.6281 59.3995 16.7521 59.1355 16.8561C58.8795 16.9521 58.5995 17.0001 58.2955 17.0001C57.7435 17.0001 57.2435 16.8601 56.7955 16.5801C56.3475 16.2921 55.9915 15.9001 55.7275 15.4041C55.4715 14.9001 55.3435 14.3241 55.3435 13.6761C55.3435 13.0201 55.4715 12.4441 55.7275 11.9481C55.9915 11.4441 56.3435 11.0521 56.7835 10.7721C57.2235 10.4841 57.7115 10.3401 58.2475 10.3401C58.5915 10.3401 58.9075 10.3921 59.1955 10.4961C59.4835 10.6001 59.7315 10.7321 59.9395 10.8921C60.1555 11.0521 60.3195 11.2161 60.4315 11.3841C60.5515 11.5441 60.6115 11.6801 60.6115 11.7921L60.1795 11.9481V8.73213C60.1795 8.52413 60.2475 8.35213 60.3835 8.21613C60.5195 8.07213 60.6915 8.00013 60.8995 8.00013ZM58.4755 15.6801C58.8275 15.6801 59.1355 15.5921 59.3995 15.4161C59.6635 15.2401 59.8675 15.0001 60.0115 14.6961C60.1635 14.3921 60.2395 14.0521 60.2395 13.6761C60.2395 13.2921 60.1635 12.9481 60.0115 12.6441C59.8675 12.3401 59.6635 12.1001 59.3995 11.9241C59.1355 11.7481 58.8275 11.6601 58.4755 11.6601C58.1315 11.6601 57.8275 11.7481 57.5635 11.9241C57.2995 12.1001 57.0915 12.3401 56.9395 12.6441C56.7955 12.9481 56.7235 13.2921 56.7235 13.6761C56.7235 14.0521 56.7955 14.3921 56.9395 14.6961C57.0915 15.0001 57.2995 15.2401 57.5635 15.4161C57.8275 15.5921 58.1315 15.6801 58.4755 15.6801ZM66.5027 10.3401C67.0627 10.3401 67.5627 10.4841 68.0027 10.7721C68.4507 11.0521 68.8027 11.4401 69.0587 11.9361C69.3227 12.4321 69.4547 13.0081 69.4547 13.6641C69.4547 14.3201 69.3227 14.9001 69.0587 15.4041C68.8027 15.9001 68.4547 16.2921 68.0147 16.5801C67.5827 16.8601 67.0947 17.0001 66.5507 17.0001C66.2307 17.0001 65.9307 16.9481 65.6507 16.8441C65.3707 16.7401 65.1227 16.6081 64.9067 16.4481C64.6987 16.2881 64.5347 16.1281 64.4147 15.9681C64.3027 15.8001 64.2467 15.6601 64.2467 15.5481L64.6187 15.3921V18.5481C64.6187 18.7561 64.5507 18.9281 64.4147 19.0641C64.2787 19.2081 64.1067 19.2801 63.8987 19.2801C63.6907 19.2801 63.5187 19.2121 63.3827 19.0761C63.2467 18.9401 63.1787 18.7641 63.1787 18.5481V11.1921C63.1787 10.9841 63.2467 10.8121 63.3827 10.6761C63.5187 10.5321 63.6907 10.4601 63.8987 10.4601C64.1067 10.4601 64.2787 10.5321 64.4147 10.6761C64.5507 10.8121 64.6187 10.9841 64.6187 11.1921V11.7801L64.4147 11.6721C64.4147 11.5681 64.4707 11.4441 64.5827 11.3001C64.6947 11.1481 64.8467 11.0001 65.0387 10.8561C65.2307 10.7041 65.4507 10.5801 65.6987 10.4841C65.9547 10.3881 66.2227 10.3401 66.5027 10.3401ZM66.3227 11.6601C65.9707 11.6601 65.6627 11.7481 65.3987 11.9241C65.1347 12.1001 64.9267 12.3401 64.7747 12.6441C64.6307 12.9401 64.5587 13.2801 64.5587 13.6641C64.5587 14.0401 64.6307 14.3841 64.7747 14.6961C64.9267 15.0001 65.1347 15.2401 65.3987 15.4161C65.6627 15.5921 65.9707 15.6801 66.3227 15.6801C66.6747 15.6801 66.9787 15.5921 67.2347 15.4161C67.4987 15.2401 67.7027 15.0001 67.8467 14.6961C67.9987 14.3841 68.0747 14.0401 68.0747 13.6641C68.0747 13.2801 67.9987 12.9401 67.8467 12.6441C67.7027 12.3401 67.4987 12.1001 67.2347 11.9241C66.9787 11.7481 66.6747 11.6601 66.3227 11.6601ZM73.7379 17.0001C73.0579 17.0001 72.4659 16.8601 71.9619 16.5801C71.4659 16.2921 71.0819 15.9041 70.8099 15.4161C70.5459 14.9281 70.4139 14.3761 70.4139 13.7601C70.4139 13.0401 70.5579 12.4281 70.8459 11.9241C71.1419 11.4121 71.5259 11.0201 71.9979 10.7481C72.4699 10.4761 72.9699 10.3401 73.4979 10.3401C73.9059 10.3401 74.2899 10.4241 74.6499 10.5921C75.0179 10.7601 75.3419 10.9921 75.6219 11.2881C75.9019 11.5761 76.1219 11.9121 76.2819 12.2961C76.4499 12.6801 76.5339 13.0881 76.5339 13.5201C76.5259 13.7121 76.4499 13.8681 76.3059 13.9881C76.1619 14.1081 75.9939 14.1681 75.8019 14.1681H71.2179L70.8579 12.9681H75.2619L74.9979 13.2081V12.8841C74.9819 12.6521 74.8979 12.4441 74.7459 12.2601C74.6019 12.0761 74.4179 11.9321 74.1939 11.8281C73.9779 11.7161 73.7459 11.6601 73.4979 11.6601C73.2579 11.6601 73.0339 11.6921 72.8259 11.7561C72.6179 11.8201 72.4379 11.9281 72.2859 12.0801C72.1339 12.2321 72.0139 12.4361 71.9259 12.6921C71.8379 12.9481 71.7939 13.2721 71.7939 13.6641C71.7939 14.0961 71.8819 14.4641 72.0579 14.7681C72.2419 15.0641 72.4739 15.2921 72.7539 15.4521C73.0419 15.6041 73.3459 15.6801 73.6659 15.6801C73.9619 15.6801 74.1979 15.6561 74.3739 15.6081C74.5499 15.5601 74.6899 15.5041 74.7939 15.4401C74.9059 15.3681 75.0059 15.3081 75.0939 15.2601C75.2379 15.1881 75.3739 15.1521 75.5019 15.1521C75.6779 15.1521 75.8219 15.2121 75.9339 15.3321C76.0539 15.4521 76.1139 15.5921 76.1139 15.7521C76.1139 15.9681 76.0019 16.1641 75.7779 16.3401C75.5699 16.5161 75.2779 16.6721 74.9019 16.8081C74.5259 16.9361 74.1379 17.0001 73.7379 17.0001ZM83.048 8.00013C83.256 8.00013 83.428 8.06813 83.564 8.20413C83.7 8.34013 83.768 8.51613 83.768 8.73213V16.1481C83.768 16.3561 83.7 16.5321 83.564 16.6761C83.428 16.8121 83.256 16.8801 83.048 16.8801C82.84 16.8801 82.668 16.8121 82.532 16.6761C82.396 16.5321 82.328 16.3561 82.328 16.1481V15.5601L82.592 15.6681C82.592 15.7721 82.536 15.9001 82.424 16.0521C82.312 16.1961 82.16 16.3401 81.968 16.4841C81.776 16.6281 81.548 16.7521 81.284 16.8561C81.028 16.9521 80.748 17.0001 80.444 17.0001C79.892 17.0001 79.392 16.8601 78.944 16.5801C78.496 16.2921 78.14 15.9001 77.876 15.4041C77.62 14.9001 77.492 14.3241 77.492 13.6761C77.492 13.0201 77.62 12.4441 77.876 11.9481C78.14 11.4441 78.492 11.0521 78.932 10.7721C79.372 10.4841 79.86 10.3401 80.396 10.3401C80.74 10.3401 81.056 10.3921 81.344 10.4961C81.632 10.6001 81.88 10.7321 82.088 10.8921C82.304 11.0521 82.468 11.2161 82.58 11.3841C82.7 11.5441 82.76 11.6801 82.76 11.7921L82.328 11.9481V8.73213C82.328 8.52413 82.396 8.35213 82.532 8.21613C82.668 8.07213 82.84 8.00013 83.048 8.00013ZM80.624 15.6801C80.976 15.6801 81.284 15.5921 81.548 15.4161C81.812 15.2401 82.016 15.0001 82.16 14.6961C82.312 14.3921 82.388 14.0521 82.388 13.6761C82.388 13.2921 82.312 12.9481 82.16 12.6441C82.016 12.3401 81.812 12.1001 81.548 11.9241C81.284 11.7481 80.976 11.6601 80.624 11.6601C80.28 11.6601 79.976 11.7481 79.712 11.9241C79.448 12.1001 79.24 12.3401 79.088 12.6441C78.944 12.9481 78.872 13.2921 78.872 13.6761C78.872 14.0521 78.944 14.3921 79.088 14.6961C79.24 15.0001 79.448 15.2401 79.712 15.4161C79.976 15.5921 80.28 15.6801 80.624 15.6801ZM86.6831 16.1481C86.6831 16.3561 86.6151 16.5321 86.4791 16.6761C86.3431 16.8121 86.1711 16.8801 85.9631 16.8801C85.7551 16.8801 85.5831 16.8121 85.4471 16.6761C85.3111 16.5321 85.2431 16.3561 85.2431 16.1481V11.1921C85.2431 10.9841 85.3111 10.8121 85.4471 10.6761C85.5831 10.5321 85.7551 10.4601 85.9631 10.4601C86.1711 10.4601 86.3431 10.5321 86.4791 10.6761C86.6151 10.8121 86.6831 10.9841 86.6831 11.1921V16.1481ZM85.9511 9.68013C85.6791 9.68013 85.4871 9.63613 85.3751 9.54813C85.2631 9.46013 85.2071 9.30413 85.2071 9.08013V8.85213C85.2071 8.62013 85.2671 8.46413 85.3871 8.38413C85.5151 8.29613 85.7071 8.25213 85.9631 8.25213C86.2431 8.25213 86.4391 8.29613 86.5511 8.38413C86.6631 8.47213 86.7191 8.62813 86.7191 8.85213V9.08013C86.7191 9.31213 86.6591 9.47213 86.5391 9.56013C86.4191 9.64013 86.2231 9.68013 85.9511 9.68013ZM93.4191 10.3401C93.6271 10.3401 93.7991 10.4081 93.9351 10.5441C94.0711 10.6801 94.1391 10.8561 94.1391 11.0721V16.1481C94.1391 16.3561 94.0711 16.5321 93.9351 16.6761C93.7991 16.8121 93.6271 16.8801 93.4191 16.8801C93.2111 16.8801 93.0391 16.8121 92.9031 16.6761C92.7671 16.5321 92.6991 16.3561 92.6991 16.1481V15.5601L92.9631 15.6681C92.9631 15.7721 92.9071 15.9001 92.7951 16.0521C92.6831 16.1961 92.5311 16.3401 92.3391 16.4841C92.1471 16.6281 91.9191 16.7521 91.6551 16.8561C91.3991 16.9521 91.1191 17.0001 90.8151 17.0001C90.2631 17.0001 89.7631 16.8601 89.3151 16.5801C88.8671 16.2921 88.5111 15.9001 88.2471 15.4041C87.9911 14.9001 87.8631 14.3241 87.8631 13.6761C87.8631 13.0201 87.9911 12.4441 88.2471 11.9481C88.5111 11.4441 88.8631 11.0521 89.3031 10.7721C89.7431 10.4841 90.2311 10.3401 90.7671 10.3401C91.1111 10.3401 91.4271 10.3921 91.7151 10.4961C92.0031 10.6001 92.2511 10.7321 92.4591 10.8921C92.6751 11.0521 92.8391 11.2161 92.9511 11.3841C93.0711 11.5441 93.1311 11.6801 93.1311 11.7921L92.6991 11.9481V11.0721C92.6991 10.8641 92.7671 10.6921 92.9031 10.5561C93.0391 10.4121 93.2111 10.3401 93.4191 10.3401ZM90.9951 15.6801C91.3471 15.6801 91.6551 15.5921 91.9191 15.4161C92.1831 15.2401 92.3871 15.0001 92.5311 14.6961C92.6831 14.3921 92.7591 14.0521 92.7591 13.6761C92.7591 13.2921 92.6831 12.9481 92.5311 12.6441C92.3871 12.3401 92.1831 12.1001 91.9191 11.9241C91.6551 11.7481 91.3471 11.6601 90.9951 11.6601C90.6511 11.6601 90.3471 11.7481 90.0831 11.9241C89.8191 12.1001 89.6111 12.3401 89.4591 12.6441C89.3151 12.9481 89.2431 13.2921 89.2431 13.6761C89.2431 14.0521 89.3151 14.3921 89.4591 14.6961C89.6111 15.0001 89.8191 15.2401 90.0831 15.4161C90.3471 15.5921 90.6511 15.6801 90.9951 15.6801Z" fill="#0095D3"/>
<path d="M96.3342 16.8681C96.1022 16.8681 95.9222 16.8081 95.7942 16.6881C95.6742 16.5601 95.6142 16.3801 95.6142 16.1481V15.9441C95.6142 15.7121 95.6742 15.5361 95.7942 15.4161C95.9222 15.2881 96.1022 15.2241 96.3342 15.2241H96.4902C96.7222 15.2241 96.8982 15.2881 97.0182 15.4161C97.1462 15.5361 97.2102 15.7121 97.2102 15.9441V16.1481C97.2102 16.3801 97.1462 16.5601 97.0182 16.6881C96.8982 16.8081 96.7222 16.8681 96.4902 16.8681H96.3342ZM100.043 16.1481C100.043 16.3561 99.9745 16.5321 99.8385 16.6761C99.7025 16.8121 99.5305 16.8801 99.3225 16.8801C99.1145 16.8801 98.9425 16.8121 98.8065 16.6761C98.6705 16.5321 98.6025 16.3561 98.6025 16.1481V11.1921C98.6025 10.9841 98.6705 10.8121 98.8065 10.6761C98.9425 10.5321 99.1145 10.4601 99.3225 10.4601C99.5305 10.4601 99.7025 10.5321 99.8385 10.6761C99.9745 10.8121 100.043 10.9841 100.043 11.1921V16.1481ZM99.3105 9.68013C99.0385 9.68013 98.8465 9.63613 98.7345 9.54813C98.6225 9.46013 98.5665 9.30413 98.5665 9.08013V8.85213C98.5665 8.62013 98.6265 8.46413 98.7465 8.38413C98.8745 8.29613 99.0665 8.25213 99.3225 8.25213C99.6025 8.25213 99.7985 8.29613 99.9105 8.38413C100.023 8.47213 100.079 8.62813 100.079 8.85213V9.08013C100.079 9.31213 100.019 9.47213 99.8985 9.56013C99.7785 9.64013 99.5825 9.68013 99.3105 9.68013ZM106.778 8.00013C106.986 8.00013 107.158 8.06813 107.294 8.20413C107.43 8.34013 107.498 8.51613 107.498 8.73213V16.1481C107.498 16.3561 107.43 16.5321 107.294 16.6761C107.158 16.8121 106.986 16.8801 106.778 16.8801C106.57 16.8801 106.398 16.8121 106.262 16.6761C106.126 16.5321 106.058 16.3561 106.058 16.1481V15.5601L106.322 15.6681C106.322 15.7721 106.266 15.9001 106.154 16.0521C106.042 16.1961 105.89 16.3401 105.698 16.4841C105.506 16.6281 105.278 16.7521 105.014 16.8561C104.758 16.9521 104.478 17.0001 104.174 17.0001C103.622 17.0001 103.122 16.8601 102.674 16.5801C102.226 16.2921 101.87 15.9001 101.606 15.4041C101.35 14.9001 101.222 14.3241 101.222 13.6761C101.222 13.0201 101.35 12.4441 101.606 11.9481C101.87 11.4441 102.222 11.0521 102.662 10.7721C103.102 10.4841 103.59 10.3401 104.126 10.3401C104.47 10.3401 104.786 10.3921 105.074 10.4961C105.362 10.6001 105.61 10.7321 105.818 10.8921C106.034 11.0521 106.198 11.2161 106.31 11.3841C106.43 11.5441 106.49 11.6801 106.49 11.7921L106.058 11.9481V8.73213C106.058 8.52413 106.126 8.35213 106.262 8.21613C106.398 8.07213 106.57 8.00013 106.778 8.00013ZM104.354 15.6801C104.706 15.6801 105.014 15.5921 105.278 15.4161C105.542 15.2401 105.746 15.0001 105.89 14.6961C106.042 14.3921 106.118 14.0521 106.118 13.6761C106.118 13.2921 106.042 12.9481 105.89 12.6441C105.746 12.3401 105.542 12.1001 105.278 11.9241C105.014 11.7481 104.706 11.6601 104.354 11.6601C104.01 11.6601 103.706 11.7481 103.442 11.9241C103.178 12.1001 102.97 12.3401 102.818 12.6441C102.674 12.9481 102.602 13.2921 102.602 13.6761C102.602 14.0521 102.674 14.3921 102.818 14.6961C102.97 15.0001 103.178 15.2401 103.442 15.4161C103.706 15.5921 104.01 15.6801 104.354 15.6801Z" fill="#F7B548"/>
<path d="M12.0042 14.4064C10.8811 14.4064 9.97143 13.5672 9.97143 12.5312C9.97143 11.0278 8.64684 9.80589 7.01704 9.80589C3.147 9.80862 0 6.90287 0 3.33288C0 2.29687 0.909726 1.45767 2.03281 1.45767C3.15589 1.45767 4.06562 2.29687 4.06562 3.33288C4.06562 4.83632 5.39316 6.05821 7.02 6.05821C10.89 6.05821 14.037 8.96122 14.037 12.5312C14.037 13.5672 13.1273 14.4064 12.0042 14.4064Z" fill="#F7B548"/>
<path d="M26.7673 23.5145C25.6442 23.5145 24.7345 22.6754 24.7345 21.6393C24.7345 20.1359 23.4099 18.914 21.7801 18.914C17.91 18.914 14.7601 16.011 14.7601 12.441C14.7601 11.405 15.6698 10.5658 16.7929 10.5658C17.916 10.5658 18.8257 11.405 18.8257 12.441C18.8257 13.9444 20.1532 15.1663 21.7801 15.1663C25.6501 15.1663 28.7971 18.0693 28.7971 21.6421C28.7971 22.6781 27.8874 23.5173 26.7643 23.5173L26.7673 23.5145Z" fill="#F7B548"/>
<path d="M16.0047 23.8644C14.8816 23.8644 13.9719 23.0252 13.9719 21.9892C13.9719 20.4858 12.6443 19.2639 11.0175 19.2639C7.14743 19.2639 4.00043 16.3609 4.00043 12.7909C4.00043 11.7549 4.91015 10.9157 6.03323 10.9157C7.15632 10.9157 8.06604 11.7549 8.06604 12.7909C8.06604 14.2943 9.39063 15.5162 11.0204 15.5162C14.8905 15.5162 18.0404 18.4192 18.0404 21.9892C18.0404 23.0252 17.1307 23.8644 16.0076 23.8644H16.0047Z" fill="#11AAE3"/>
<path d="M22.3787 12.1239C21.2556 12.1239 20.3459 11.2847 20.3459 10.2487C20.3459 8.74525 19.0183 7.52336 17.3915 7.52336C16.2684 7.52336 15.3587 6.68416 15.3587 5.64815C15.3587 4.61214 16.2684 3.77295 17.3915 3.77295C21.2615 3.77295 24.4085 6.67596 24.4085 10.246C24.4085 11.282 23.4988 12.1212 22.3757 12.1212L22.3787 12.1239Z" fill="#11AAE3"/>
<path d="M10.0988 3.08138C10.0988 1.87315 11.1627 0.891815 12.4724 0.891815C13.7822 0.891815 14.846 1.87315 14.846 3.08138C14.846 4.2896 13.7822 5.27094 12.4724 5.27094C11.1627 5.27094 10.0988 4.2896 10.0988 3.08138Z" fill="#F7B548"/>
</svg>
