<svg width="15" height="16" viewBox="0 0 15 16" fill="none" xmlns="http://www.w3.org/2000/svg">
<path d="M7.1725 9.875C7.00674 9.875 6.84777 9.94085 6.73056 10.0581C6.61335 10.1753 6.5475 10.3342 6.5475 10.5V12.375C6.5475 12.8723 6.34996 13.3492 5.99833 13.7008C5.6467 14.0525 5.16978 14.25 4.6725 14.25H3.125C2.62772 14.25 2.15081 14.0525 1.79917 13.7008C1.44754 13.3492 1.25 12.8723 1.25 12.375V3.625C1.25 3.12772 1.44754 2.65081 1.79917 2.29917C2.15081 1.94754 2.62772 1.75 3.125 1.75H4.6725C5.16978 1.75 5.6467 1.94754 5.99833 2.29917C6.34996 2.65081 6.5475 3.12772 6.5475 3.625V5.5C6.5475 5.66576 6.61335 5.82473 6.73056 5.94194C6.84777 6.05915 7.00674 6.125 7.1725 6.125C7.33826 6.125 7.49723 6.05915 7.61444 5.94194C7.73165 5.82473 7.7975 5.66576 7.7975 5.5V3.625C7.79651 2.7965 7.46695 2.00222 6.88111 1.41639C6.29528 0.830551 5.501 0.500992 4.6725 0.5H3.125C2.2965 0.500992 1.50222 0.830551 0.916387 1.41639C0.330551 2.00222 0.000992411 2.7965 0 3.625V12.375C0.000992411 13.2035 0.330551 13.9978 0.916387 14.5836C1.50222 15.1694 2.2965 15.499 3.125 15.5H4.6725C5.501 15.499 6.29528 15.1694 6.88111 14.5836C7.46695 13.9978 7.79651 13.2035 7.7975 12.375V10.5C7.7975 10.3342 7.73165 10.1753 7.61444 10.0581C7.49723 9.94085 7.33826 9.875 7.1725 9.875Z" fill="white"/>
<path d="M14.2919 6.67437L11.4256 3.80813C11.368 3.74843 11.299 3.70082 11.2228 3.66806C11.1465 3.63531 11.0645 3.61806 10.9815 3.61734C10.8985 3.61662 10.8162 3.63244 10.7394 3.66386C10.6626 3.69529 10.5928 3.7417 10.5341 3.80038C10.4754 3.85906 10.429 3.92884 10.3976 4.00565C10.3662 4.08246 10.3504 4.16476 10.3511 4.24775C10.3518 4.33074 10.3691 4.41275 10.4018 4.489C10.4346 4.56526 10.4822 4.63422 10.5419 4.69187L13.2056 7.35625L3.75 7.375C3.58424 7.375 3.42527 7.44085 3.30806 7.55806C3.19085 7.67527 3.125 7.83424 3.125 8C3.125 8.16576 3.19085 8.32473 3.30806 8.44194C3.42527 8.55915 3.58424 8.625 3.75 8.625L13.2425 8.60562L10.5406 11.3081C10.4809 11.3658 10.4333 11.4347 10.4006 11.511C10.3678 11.5872 10.3506 11.6693 10.3498 11.7522C10.3491 11.8352 10.3649 11.9175 10.3964 11.9943C10.4278 12.0712 10.4742 12.1409 10.5329 12.1996C10.5916 12.2583 10.6613 12.3047 10.7382 12.3361C10.815 12.3676 10.8973 12.3834 10.9803 12.3827C11.0632 12.3819 11.1452 12.3647 11.2215 12.3319C11.2978 12.2992 11.3667 12.2516 11.4244 12.1919L14.2906 9.32562C14.6423 8.97418 14.84 8.49744 14.8402 8.00026C14.8405 7.50308 14.6432 7.02615 14.2919 6.67437Z" fill="white"/>
</svg>
