<svg width="15" height="15" viewBox="0 0 15 15" fill="none" xmlns="http://www.w3.org/2000/svg">
<path d="M13.7488 3.53013V1.56558C13.7488 1.04757 13.3289 0.628293 12.8115 0.628293C12.2941 0.628293 11.8742 1.04757 11.8742 1.56558V2.24605L9.42229 0.591427C8.25444 -0.197142 6.74603 -0.197142 5.57817 0.591427L1.51661 3.33205C0.568073 3.9719 0.00195312 5.03666 0.00195312 6.18077V11.5633C0.00195312 13.4585 1.5441 15 3.43867 15H5.31324C5.83062 15 6.25052 14.5807 6.25052 14.0627V9.06386C6.25052 8.8914 6.39111 8.75143 6.56295 8.75143H8.43752C8.60935 8.75143 8.74995 8.8914 8.74995 9.06386V14.0627C8.74995 14.5807 9.16985 15 9.68723 15H11.5618C13.4564 15 14.9985 13.4585 14.9985 11.5633V6.18077C14.9985 5.14726 14.5367 4.17873 13.7488 3.53013ZM13.1239 11.5633C13.1239 12.4243 12.4235 13.1254 11.5618 13.1254H10.6245V9.06386C10.6245 7.85789 9.64349 6.87686 8.43752 6.87686H6.56295C5.35698 6.87686 4.37595 7.85789 4.37595 9.06386V13.1254H3.43867C2.57699 13.1254 1.87652 12.4243 1.87652 11.5633V6.18077C1.87652 5.66026 2.13396 5.17663 2.56512 4.88544L6.62668 2.14482C7.15781 1.78678 7.84328 1.78678 8.37441 2.14482L12.436 4.88607C12.8665 5.17663 13.1246 5.66089 13.1246 6.18077L13.1239 11.5633Z" fill="white"/>
</svg>
