<svg width="15" height="15" viewBox="0 0 15 15" fill="none" xmlns="http://www.w3.org/2000/svg">
<g clip-path="url(#clip0_3091_13681)">
<path d="M13.125 13.4375V15H11.875V13.4375C11.875 12.5756 11.1744 11.875 10.3125 11.875H4.68754C3.82629 11.875 3.12504 12.5756 3.12504 13.4375V15H1.87504V13.4375C1.87504 11.8869 3.13691 10.625 4.68754 10.625H10.3125C11.8632 10.625 13.125 11.8869 13.125 13.4375ZM8.01504 3.80938C8.79941 3.99001 9.43879 4.62438 9.62441 5.40751C9.75004 5.93688 9.68129 6.44438 9.47566 6.87501H10.2919C10.605 6.87501 10.8788 6.645 10.915 6.33376C10.9575 5.96688 10.9419 5.58251 10.8582 5.18938C10.5807 3.89001 9.52629 2.84188 8.22504 2.57438C6.01441 2.12 4.06316 3.80563 4.06316 5.9375C4.06316 6.85563 4.42504 7.69063 5.01316 8.3075C5.03816 7.7775 5.22941 7.29063 5.53566 6.89751C5.39316 6.60751 5.31316 6.28125 5.31316 5.93688C5.31316 4.5625 6.58691 3.48001 8.01566 3.80875L8.01504 3.80938ZM4.29441 2.5175C5.25004 1.62188 6.50129 1.17938 7.81316 1.26063C10.2657 1.41938 12.1875 3.55376 12.1875 6.11938C12.1875 7.22563 11.2882 8.125 10.1819 8.125H8.68379C8.53191 7.60563 8.05254 7.22563 7.48379 7.22563C6.79316 7.22563 6.23379 7.78501 6.23379 8.47563C6.23379 9.16625 6.79316 9.72563 7.48379 9.72563C7.82066 9.72563 8.12691 9.59188 8.35129 9.37501H10.1813C11.9763 9.37501 13.4369 7.91438 13.4369 6.11938C13.4375 2.89625 11.0025 0.213755 7.89379 0.0131296C6.22879 -0.0949954 4.64941 0.47063 3.44004 1.60563C2.32316 2.6525 1.65191 4.10313 1.57129 5.62563H2.82316C2.90004 4.43625 3.41566 3.34188 4.29504 2.5175H4.29441Z" fill="white"/>
</g>
<defs>
<clipPath id="clip0_3091_13681">
<rect width="15" height="15" fill="white"/>
</clipPath>
</defs>
</svg>
