<svg width="15" height="14" viewBox="0 0 15 14" fill="none" xmlns="http://www.w3.org/2000/svg">
<g clip-path="url(#clip0_3091_13675)">
<path d="M14.9664 8.83625C14.9338 8.46839 14.5552 8.25365 14.2358 8.46037C14.1699 8.50302 14.0297 8.67729 14.0297 8.75021V12.1123H0.935425V6.52337H6.18213C6.35352 6.52337 6.54578 6.24264 6.54981 6.07202C6.5542 5.88827 6.37439 5.59187 6.18213 5.59187H0.935425V3.72888H6.18213C6.20447 3.72888 6.32312 3.65779 6.35278 3.63665C6.72375 3.37597 6.53735 2.81562 6.0957 2.79593L0.836548 2.80031C0.391968 2.86775 0.11145 3.15941 0.000488281 3.58305V12.2578C0.112915 12.6906 0.407349 12.9866 0.862915 13.0435L14.178 13.0307C14.5958 12.9531 14.8855 12.6508 14.958 12.2359C14.8987 11.1418 15.0624 9.91503 14.9664 8.83625Z" fill="white"/>
<path d="M2.24316 8.39328C1.74548 8.52089 1.74365 9.1764 2.24316 9.31092C2.87122 9.26207 3.67212 9.40097 4.28003 9.3153C4.79858 9.24202 4.80444 8.47714 4.30493 8.39328C3.70764 8.29339 2.86572 8.44761 2.24316 8.39328Z" fill="white"/>
<path d="M10.5433 8.99156C10.7177 9.09728 11.0454 9.32624 11.2391 9.3204C11.4633 9.31384 12.2144 8.79651 12.4319 8.64266C14.048 7.50116 14.8723 6.16134 14.9668 4.15179C14.9972 3.5054 15.0239 2.50937 14.9668 1.87865C14.9492 1.68433 14.8807 1.53449 14.6991 1.44663C13.5536 0.970128 12.4231 0.448418 11.2673 0.00181041C11.2205 -0.00329367 11.1747 0.00181041 11.1285 0.00946653L7.80481 1.41491C7.60815 1.51845 7.50745 1.61944 7.48254 1.85095C7.41699 2.4587 7.45178 3.52034 7.48145 4.15179C7.58765 6.40889 8.65918 7.84861 10.5433 8.99156ZM8.42188 2.16084L11.2098 0.990179L11.3124 1.00586L14.0256 2.16047C14.0081 3.20754 14.1205 4.2907 13.8521 5.31261C13.5485 6.46905 12.7915 7.26565 11.8295 7.92663C11.7141 8.0061 11.386 8.24636 11.2809 8.28391C11.2439 8.29704 11.2296 8.30433 11.1879 8.29375C11.1176 8.27626 10.6953 7.98022 10.6012 7.91496C9.64685 7.25216 8.89795 6.46431 8.59583 5.31297C8.32739 4.29106 8.43945 3.2079 8.42188 2.16084Z" fill="white"/>
<path d="M10.3903 5.88353C10.6191 6.12525 10.8938 6.11285 11.1223 5.88353C11.7885 5.21599 12.3575 4.21887 13.0138 3.51743C13.3093 3.06535 12.7446 2.56333 12.3206 2.91442C11.8152 3.45618 11.3988 4.13356 10.9015 4.67387C10.877 4.70048 10.796 4.80293 10.7568 4.77631C10.5811 4.5284 10.2599 3.85357 9.98303 3.75623C9.55493 3.60566 9.21985 4.02747 9.41687 4.43653C9.53076 4.67277 10.2156 5.69906 10.3903 5.88353Z" fill="white"/>
</g>
<defs>
<clipPath id="clip0_3091_13675">
<rect width="15" height="13.0435" fill="white"/>
</clipPath>
</defs>
</svg>
