<svg width="25" height="20" viewBox="0 0 25 20" fill="none" xmlns="http://www.w3.org/2000/svg">
<path d="M10.4214 11.7658C9.44641 11.7658 8.65664 11.0352 8.65664 10.1333C8.65664 8.82438 7.50671 7.76061 6.0918 7.76061C2.73205 7.76299 0 5.23324 0 2.12519C0 1.22324 0.789773 0.492636 1.76477 0.492636C2.73977 0.492636 3.52954 1.22324 3.52954 2.12519C3.52954 3.43409 4.68205 4.49787 6.09438 4.49787C9.45413 4.49787 12.1862 7.02524 12.1862 10.1333C12.1862 11.0352 11.3964 11.7658 10.4214 11.7658Z" fill="white"/>
<path d="M23.2378 19.6954C22.2628 19.6954 21.473 18.9648 21.473 18.0628C21.473 16.7539 20.3231 15.6901 18.9082 15.6901C15.5484 15.6901 12.8138 13.1628 12.8138 10.0547C12.8138 9.15276 13.6036 8.42216 14.5786 8.42216C15.5536 8.42216 16.3434 9.15276 16.3434 10.0547C16.3434 11.3636 17.4959 12.4274 18.9082 12.4274C22.2679 12.4274 25 14.9548 25 18.0652C25 18.9671 24.2102 19.6977 23.2352 19.6977L23.2378 19.6954Z" fill="white"/>
<path d="M13.8944 20C12.9194 20 12.1296 19.2694 12.1296 18.3674C12.1296 17.0585 10.9771 15.9948 9.56481 15.9948C6.20505 15.9948 3.473 13.4674 3.473 10.3594C3.473 9.4574 4.26277 8.72679 5.23777 8.72679C6.21277 8.72679 7.00254 9.4574 7.00254 10.3594C7.00254 11.6683 8.15247 12.732 9.56738 12.732C12.9271 12.732 15.6618 15.2594 15.6618 18.3674C15.6618 19.2694 14.872 20 13.897 20H13.8944Z" fill="white"/>
<path d="M19.4279 9.7787C18.4529 9.7787 17.6631 9.04809 17.6631 8.14614C17.6631 6.83724 16.5106 5.77346 15.0983 5.77346C14.1233 5.77346 13.3335 5.04285 13.3335 4.1409C13.3335 3.23895 14.1233 2.50835 15.0983 2.50835C18.458 2.50835 21.1901 5.03571 21.1901 8.14376C21.1901 9.04571 20.4003 9.77632 19.4253 9.77632L19.4279 9.7787Z" fill="white"/>
<path d="M8.76728 1.90624C8.76728 0.854355 9.69083 0 10.8279 0C11.965 0 12.8885 0.854355 12.8885 1.90624C12.8885 2.95812 11.965 3.81247 10.8279 3.81247C9.69083 3.81247 8.76728 2.95812 8.76728 1.90624Z" fill="white"/>
</svg>
