<svg width="30" height="20" viewBox="0 0 30 20" fill="none" xmlns="http://www.w3.org/2000/svg">
<path d="M13.715 0.640002C14.365 -0.209998 15.645 -0.209998 16.285 0.640002L22.945 9.35L28.745 17.33C29.515 18.4 28.765 19.89 27.445 19.9L14.995 20L2.54499 19.9C1.22499 19.89 0.474992 18.39 1.24499 17.33L7.04499 9.35L13.715 0.640002Z" fill="#F7931E"/>
<path d="M14.995 4.09998C14.375 4.09998 13.865 4.60998 13.865 5.22998V14.45C13.865 15.07 14.375 15.58 14.995 15.58C15.615 15.58 16.125 15.07 16.125 14.45V5.22998C16.125 4.60998 15.615 4.09998 14.995 4.09998Z" fill="white"/>
<path d="M14.995 16.0099C14.375 16.0099 13.865 16.5199 13.865 17.1399C13.865 17.7599 14.375 18.2699 14.995 18.2699C15.615 18.2699 16.125 17.7599 16.125 17.1399C16.125 16.5199 15.615 16.0099 14.995 16.0099Z" fill="white"/>
</svg>
